<svg width="147" height="24" viewBox="0 0 147 24" fill="none" xmlns="http://www.w3.org/2000/svg">
  <path fill-rule="evenodd" clip-rule="evenodd" d="M37.5175 16.1751C37.5175 14.8606 38.5832 13.795 39.8977 13.795H43.5816C44.67 13.795 45.5524 12.9126 45.5524 11.8242C45.5524 10.7357 44.67 9.85335 43.5816 9.85335H39.7764C38.5289 9.85335 37.5175 8.84202 37.5175 7.59449C37.5175 6.34696 38.5289 5.33564 39.7764 5.33564H44.3092C45.4144 5.33564 46.3104 4.4397 46.3104 3.33451C46.3104 2.22931 45.4144 1.33337 44.3093 1.33337H37.3333C35.1242 1.33337 33.3333 3.12424 33.3333 5.33338V18.5575C33.3333 20.7666 35.1242 22.5575 37.3333 22.5575H44.4608C45.566 22.5575 46.462 21.6616 46.462 20.5564C46.462 19.4512 45.566 18.5552 44.4608 18.5552H39.8977C38.5832 18.5552 37.5175 17.4896 37.5175 16.1751ZM64.9831 20.6624C66.5295 22.2088 68.4093 22.9668 70.6833 22.9668C72.9573 22.9668 74.8372 22.2088 76.3835 20.6624C77.9298 19.1161 78.7182 17.2059 78.7182 14.9623C78.7182 12.7489 77.9298 10.8387 76.3835 9.29238C74.8372 7.74605 72.927 6.95772 70.6833 6.95772C68.4396 6.95772 66.5295 7.74605 64.9831 9.29238C63.4368 10.8387 62.6788 12.7186 62.6788 14.9623C62.6788 17.2363 63.4368 19.1161 64.9831 20.6624ZM73.6244 17.9639C72.8361 18.7523 71.8658 19.1464 70.6833 19.1464C69.5008 19.1464 68.5306 18.7523 67.7423 17.9639C66.9843 17.1453 66.5901 16.1447 66.5901 14.9623C66.5901 13.7798 66.9843 12.7792 67.7423 11.9606C68.5306 11.1722 69.5008 10.7781 70.6833 10.7781C71.8658 10.7781 72.8361 11.1722 73.6244 11.9606C74.4127 12.7489 74.8069 13.7494 74.8069 14.9623C74.8069 16.1751 74.4127 17.1756 73.6244 17.9639ZM82.9528 20.6624C81.4368 19.1161 80.6788 17.2059 80.6788 14.9623C80.6788 12.6882 81.4368 10.8084 82.9528 9.26206C84.4991 7.71573 86.4093 6.95772 88.6833 6.95772C90.169 6.95772 91.5031 7.32156 92.7159 8.01893C93.3675 8.39362 93.9317 8.84709 94.4129 9.36993C95.109 10.1261 94.7724 11.2805 93.8855 11.7998C92.927 12.3611 91.7176 11.8902 90.7627 11.3228C90.1832 10.9786 89.48 10.8084 88.653 10.8084C87.4705 10.8084 86.5003 11.2025 85.7423 11.9606C84.9843 12.7489 84.5901 13.7494 84.5901 14.9623C84.5901 16.1447 84.9843 17.115 85.7423 17.9336C86.5003 18.6916 87.4705 19.0858 88.653 19.0858C89.4917 19.0858 90.2076 18.9171 90.7932 18.5797C91.7493 18.0287 92.9562 17.5512 93.9143 18.0986C94.814 18.6128 95.1534 19.7784 94.447 20.5365C93.9501 21.0698 93.373 21.5277 92.7159 21.9056C91.4728 22.6029 90.1387 22.9668 88.6833 22.9668C86.4093 22.9668 84.4991 22.2088 82.9528 20.6624ZM109.921 16.5844C110.848 16.5844 111.688 15.9043 111.688 14.9774C111.688 12.7034 110.96 10.8235 109.505 9.27719C108.08 7.73086 106.26 6.97286 104.017 6.97286C101.652 6.97286 99.7415 7.73086 98.2558 9.27719C96.7701 10.8235 96.0121 12.7034 96.0121 14.9774C96.0121 17.2817 96.7701 19.1919 98.2861 20.7079C99.8022 22.2239 101.803 22.9819 104.32 22.9819C106.458 22.9819 108.219 22.3931 109.593 21.2275C110.417 20.5278 110.128 19.275 109.191 18.7346C108.383 18.2682 107.368 18.5354 106.538 18.962C105.929 19.2752 105.206 19.4345 104.381 19.4345C102.796 19.4345 101.63 19.0014 100.884 18.1257C100.314 17.4578 100.968 16.5844 101.846 16.5844H109.921ZM101.734 13.5523C100.872 13.5523 100.213 12.7158 100.702 12.0062C101.396 10.9989 102.504 10.49 104.017 10.49C105.468 10.49 106.514 11.0011 107.165 12.0126C107.627 12.7308 106.965 13.5523 106.112 13.5523H101.734ZM124.724 8.24642C125.066 8.52045 125.655 8.29893 125.655 7.86052C125.655 7.60471 125.863 7.39734 126.119 7.39734H128.233C128.97 7.39734 129.567 7.9943 129.567 8.73068V21.2241C129.567 21.9605 128.97 22.5574 128.233 22.5574H126.119C125.863 22.5574 125.655 22.3501 125.655 22.0943C125.655 21.6558 125.066 21.4343 124.724 21.7084C123.658 22.5618 122.326 22.9819 120.713 22.9819C118.682 22.9819 116.954 22.2239 115.498 20.6776C114.073 19.1313 113.345 17.2211 113.345 14.9774C113.345 12.764 114.073 10.8538 115.498 9.30751C116.954 7.76118 118.682 6.97286 120.713 6.97286C122.326 6.97286 123.658 7.39295 124.724 8.24642ZM121.441 19.2525C122.654 19.2525 123.654 18.8584 124.443 18.07C125.261 17.2514 125.655 16.2205 125.655 14.9774C125.655 13.7343 125.261 12.7034 124.443 11.915C123.654 11.0964 122.654 10.7022 121.441 10.7022C120.228 10.7022 119.228 11.0964 118.439 11.915C117.651 12.7034 117.257 13.7343 117.257 14.9774C117.257 16.2205 117.651 17.2514 118.439 18.07C119.228 18.8584 120.228 19.2525 121.441 19.2525ZM144.534 8.64047C145.626 9.76232 146.172 11.2783 146.172 13.2491V20.6018C146.172 21.6819 145.296 22.5574 144.216 22.5574C143.136 22.5574 142.26 21.6819 142.26 20.6018V13.7343C142.26 12.7337 141.987 11.9757 141.442 11.3996C140.926 10.8842 140.199 10.6113 139.259 10.6113C137.045 10.6113 135.923 11.8544 135.923 14.371V19.9499C135.923 21.39 134.756 22.5574 133.316 22.5574C132.596 22.5574 132.012 21.9737 132.012 21.2537V8.73067C132.012 7.9943 132.609 7.39734 133.345 7.39734H135.532C135.748 7.39734 135.923 7.57281 135.923 7.78926C135.923 8.17803 136.486 8.3692 136.783 8.11807C137.69 7.35057 138.901 6.97286 140.441 6.97286C142.109 6.97286 143.473 7.51862 144.534 8.64047ZM54.0255 16.1944C54.2321 16.792 55.077 16.7931 55.2851 16.196L57.886 8.7344C58.1651 7.93377 58.9201 7.39734 59.768 7.39734C61.1633 7.39734 62.1268 8.79411 61.6311 10.0984L57.6883 20.4742C57.2118 21.7283 56.0098 22.5574 54.6682 22.5574C53.3266 22.5574 52.1246 21.7283 51.648 20.4742L47.7043 10.096C47.2091 8.79287 48.1717 7.39734 49.5657 7.39734C50.4147 7.39734 51.1703 7.93562 51.4477 8.73801L54.0255 16.1944Z" fill="#1E293B"/>
  <path d="M11.1566 21.2259L9.70336 16.8628C9.2941 15.6509 8.35031 14.7064 7.13924 14.2968L2.77106 12.8341C-0.962365 11.5887 -0.912252 6.2728 2.85458 5.11099L4 4.66667C5.33333 4.33333 6.33333 4.66667 7.33333 5L20.9704 10.3517C21.5969 10.5941 21.9309 11.2794 21.7305 11.9147L18.8657 21.1507C17.7131 24.9119 12.4011 24.9621 11.1566 21.2259Z" fill="#4F46E5"/>
  <path d="M21.3307 8.67258L15.0155 3.64622C13.9304 2.79552 14.3172 1.63441 15.4774 1.24738L18.7332 0.188854C21.8569 -0.780714 24.7801 2.14471 23.8113 5.27073L23.0011 7.87017C22.7756 8.56392 22.0239 8.93168 21.3307 8.67258Z" fill="#4F46E5"/>
</svg>
