<svg width="14" height="15" viewBox="0 0 14 15" fill="none" xmlns="http://www.w3.org/2000/svg">
  <g clip-path="url(#clip0_41_2516)">
    <path d="M7 0.471191C10.8654 0.471191 14 3.60579 14 7.47119C14 11.3366 10.8654 14.4712 7 14.4712C3.1346 14.4712 0 11.3366 0 7.47119C0 3.60579 3.1346 0.471191 7 0.471191Z" fill="black"/>
    <path fill-rule="evenodd" clip-rule="evenodd" d="M3.23695 6.80335H9.71475C9.79595 6.80335 9.87295 6.83555 9.92895 6.89295L10.9538 7.92475C11.1428 8.11515 11.0084 8.43995 10.7396 8.43995H4.26175C4.18055 8.43995 4.10355 8.40775 4.04755 8.35035L3.02275 7.31855C2.83235 7.12815 2.96815 6.80335 3.23695 6.80335ZM3.02275 5.43555L4.04755 4.40375C4.10495 4.34635 4.18195 4.31415 4.26175 4.31415H10.7382C11.007 4.31415 11.1428 4.63895 10.9524 4.82935L9.92895 5.86115C9.87155 5.91855 9.79455 5.95075 9.71475 5.95075H3.23695C2.96815 5.95075 2.83235 5.62595 3.02275 5.43555ZM10.9524 9.80775L9.92755 10.8395C9.87015 10.8969 9.79315 10.9291 9.71335 10.9291H3.23695C2.96815 10.9291 2.83235 10.6043 3.02275 10.4139L4.04755 9.38215C4.10495 9.32475 4.18195 9.29255 4.26175 9.29255H10.7382C11.007 9.29255 11.1428 9.61735 10.9524 9.80775Z" fill="url(#paint0_linear_41_2516)"/>
  </g>
  <defs>
    <linearGradient id="paint0_linear_41_2516" x1="3.39543" y1="11.2138" x2="10.5797" y2="4.02952" gradientUnits="userSpaceOnUse">
      <stop stop-color="#CB4EE8"/>
      <stop offset="1" stop-color="#10F4B1"/>
    </linearGradient>
    <clipPath id="clip0_41_2516">
      <rect width="14" height="14" fill="white" transform="translate(0 0.471191)"/>
    </clipPath>
  </defs>
</svg>
