<svg width="104" height="91" viewBox="0 0 104 91" fill="none" xmlns="http://www.w3.org/2000/svg">
  <path d="M91.1855 55.334C91.2136 40.7216 91.2393 22.6241 91.2651 14.6427C91.2651 13.8305 91.2651 12.9739 90.8578 12.2647C90.0831 10.9048 88.2551 10.6707 86.6915 10.5888L2.91695 6.28678C2.41138 6.26103 1.83325 6.26337 1.49855 6.64021C1.24342 6.9281 1.213 7.34238 1.19427 7.7239C0.103869 30.7113 0.524521 53.7456 2.45351 76.6778C2.56118 77.9371 2.76013 79.3602 3.78999 80.0928C4.51089 80.603 5.45415 80.6335 6.33656 80.6428C30.3563 80.8657 54.3445 78.8472 77.9892 74.6134L91.1504 72.6754C91.1504 70.6017 91.1644 67.8421 91.1714 64.6378C91.1504 60.5649 91.1504 58.0802 91.1855 55.334Z" fill="#CED9FD"/>
  <path d="M78.7009 57.9041C80.2925 62.6813 81.7273 67.5591 83.8502 72.1396L84.2107 71.2502C83.3213 71.4421 82.6191 72.6124 83.7168 73.1601C84.6671 73.6283 85.4161 72.458 84.8543 71.6903C84.3862 71.07 83.347 71.6715 83.8081 72.3011L84.5337 72.4158C84.9456 72.3269 85.0486 71.8611 84.8941 71.5288C82.825 67.0465 81.4347 62.26 79.8759 57.5835C79.6301 56.8485 78.4715 57.1645 78.7056 57.9041H78.7009Z" fill="#3869FA"/>
  <path d="M76.686 49.984L70.2938 35.5518C70.218 35.3365 70.0929 35.1417 69.9287 34.9831C69.7064 34.8355 69.4465 34.7543 69.1797 34.749C67.9415 34.6062 66.6495 34.6601 65.5097 34.1592C64.3698 33.6583 63.4476 32.3335 63.9298 31.1843" fill="#CED9FD"/>
  <path d="M63.637 30.8504C63.0168 30.5929 63.3093 27.9644 63.8009 27.5104C64.2924 27.0563 65.018 26.9861 65.685 26.9346L68.7278 26.7005L76.6858 26.106C77.6478 26.0334 78.7315 26.003 79.4314 26.6654C79.8995 27.1078 80.0797 27.7702 80.164 28.4068C80.2529 29.0786 80.2412 29.528 79.965 30.0452C79.5335 30.8395 78.7423 31.3739 77.8444 31.4777C77.0018 31.583 76.1405 31.6813 75.2885 31.7445C72.4798 31.9575 69.1234 32.4092 66.0689 32.0277C65.7084 31.9832 65.2427 31.7936 65.2942 31.4332" fill="white"/>
  <path d="M86.8325 78.7878C88.2494 82.5 89.7567 86.1763 91.3546 89.8167C91.4622 90.0648 91.5605 90.3855 91.3709 90.5774C91.1813 90.7693 90.732 90.5985 90.6407 90.2965C90.5895 89.9838 90.6456 89.6629 90.7998 89.386" fill="#CED9FD"/>
  <path d="M1.90625 15.9299C31.5335 16.9925 61.1693 17.7532 90.8138 18.212L1.90625 15.9299Z" fill="#CED9FD"/>
  <path d="M7.14181 11.4117C6.95924 11.5287 7.08798 11.8588 7.30331 11.8798C7.52663 11.8741 7.7148 11.7114 7.75271 11.4913C7.79636 11.3638 7.76265 11.2225 7.6661 11.1285C7.56078 11.0466 7.36417 11.1285 7.37821 11.2502" fill="#CED9FD"/>
  <path d="M11.7436 11.8069C11.561 11.9239 11.6898 12.2539 11.9051 12.275C12.1284 12.2693 12.3166 12.1066 12.3545 11.8865C12.397 11.7585 12.3624 11.6175 12.2656 11.5237C12.1602 11.4417 11.9636 11.5237 11.98 11.6454" fill="#CED9FD"/>
  <path d="M16.3427 12.202C16.1602 12.3191 16.2889 12.6491 16.5042 12.6702C16.7276 12.6645 16.9157 12.5018 16.9536 12.2816C16.9961 12.1537 16.9615 12.0127 16.8647 11.9188C16.7617 11.8369 16.5651 11.9188 16.5791 12.0405" fill="#CED9FD"/>
  <path d="M10.606 50.0918C10.4141 41.5627 10.4234 33.032 10.6341 24.4997C20.488 24.3218 30.3341 24.545 40.1724 25.1691L39.4351 49.0081C39.4957 49.2974 39.4102 49.598 39.2064 49.8121C39.0026 50.0262 38.7066 50.1264 38.4146 50.0801L17.6699 51.9362C15.3995 52.1398 13.073 52.3388 10.8822 51.7419" fill="white"/>
  <path d="M11.0305 40.5433L16.0113 35.9183C17.0341 34.9704 18.1857 33.9662 19.5807 33.9241C21.0225 33.882 22.2818 34.9025 23.1782 36.0306C24.0747 37.1588 24.7651 38.4719 25.8512 39.4198C26.9372 40.3678 28.6154 40.8733 29.8302 40.0869C30.2632 39.8037 30.6002 39.3847 31.0637 39.1507C31.8642 38.7551 32.8261 39.0313 33.6383 39.3964C35.6892 40.3189 37.4687 41.7527 38.8064 43.5603" fill="#CED9FD"/>
  <path d="M28.4375 32.5671C29.1384 32.6001 29.829 32.7496 30.4808 33.0095C30.4551 32.0966 31.0988 31.1534 31.9999 31.0246C32.901 30.8959 33.8443 31.8251 33.5774 32.6958C34.024 32.6895 34.4683 32.7608 34.8905 32.9065" fill="#CED9FD"/>
  <path d="M48.1875 55.4783L61.2785 54.9961L48.1875 55.4783Z" fill="#CED9FD"/>
  <path d="M48.9668 61.3414C49.3761 61.135 49.8263 61.0223 50.2846 61.0114C52.4664 60.8024 54.6588 60.7242 56.8499 60.7773" fill="#CED9FD"/>
  <path d="M77.2082 49.6873L71.8506 37.5887C71.249 36.2312 70.9401 34.4008 69.2595 34.1504C67.792 33.9327 63.6702 33.9936 64.5128 31.3417C64.7469 30.5974 63.5766 30.2791 63.3425 31.021C62.8955 32.4254 63.6866 33.8297 64.9201 34.5319C65.7042 34.986 66.624 35.1171 67.5111 35.206C68.0214 35.2575 68.8101 35.1639 69.2806 35.3652C69.8189 35.5992 70.0226 36.4418 70.2379 36.924L76.1596 50.2958C76.4733 50.998 77.5172 50.3918 77.2035 49.6849L77.2082 49.6873Z" fill="#3869FA"/>
  <path d="M63.9416 30.3364C63.7426 30.2007 63.9135 28.5178 64.1311 28.1503C64.7093 27.179 67.2839 27.4294 68.2997 27.3522C71.2934 27.1181 74.3361 26.7249 77.3368 26.6898C78.0787 26.6898 78.8886 26.7647 79.2842 27.4926C79.6189 28.1082 79.7523 29.131 79.441 29.763C78.7388 31.2423 76.4614 31.0691 75.0921 31.1791C73.6503 31.2961 72.2109 31.4459 70.7667 31.5278C70.2097 31.5606 65.9966 31.9 65.8749 31.2937C65.7204 30.5307 64.5548 30.8537 64.7046 31.6144C64.9597 32.8807 66.7713 32.7519 67.7474 32.7847C69.6648 32.816 71.5824 32.7276 73.4888 32.5202C75.8294 32.3142 80.3281 32.6958 80.7728 29.4517C80.9343 28.2814 80.5855 26.7858 79.6025 26.0532C78.4673 25.2082 76.878 25.4961 75.5743 25.585L69.8328 26.0134C68.1219 26.1421 66.1768 26.0461 64.5103 26.4815C63.34 26.7881 62.9211 27.5839 62.7525 28.7121C62.6261 29.564 62.5068 30.8186 63.3236 31.364C63.9696 31.7993 64.5759 30.7531 63.9345 30.3201L63.9416 30.3364Z" fill="#3869FA"/>
  <path d="M77.8304 74.038C60.2674 77.176 42.5082 79.0944 24.6802 79.7795C20.2486 79.9511 15.8163 80.044 11.3832 80.058C10.3128 80.058 9.24238 80.058 8.17195 80.058C7.06016 80.058 5.67453 80.2453 4.61658 79.8474C2.71836 79.1335 2.99923 75.9877 2.8705 74.3774C2.15896 65.4504 1.67601 56.5093 1.42167 47.5542C1.1642 38.5257 1.1408 29.4949 1.35145 20.4618C1.40294 18.2242 1.46848 15.9866 1.54806 13.749C1.58707 12.6676 1.6292 11.5878 1.67445 10.5096C1.69552 10.0415 1.71424 9.57334 1.73531 9.11927C1.75871 8.602 1.62998 7.50894 1.99979 7.12508C2.54515 6.561 4.26549 6.96826 5.0098 7.00805L8.50197 7.18594L15.2499 7.53468L69.2404 10.3153L82.7386 11.0175C84.672 11.1158 86.8885 10.9449 88.761 11.5114C91.132 12.2276 90.6639 14.7671 90.6569 16.7519C90.6272 25.6961 90.5976 34.6396 90.5679 43.5822L90.5445 50.2903C90.5445 51.0698 91.7523 51.0698 91.7546 50.2903C91.7874 40.7282 91.8194 31.1677 91.8506 21.6087C91.8506 19.2962 91.881 16.9813 91.874 14.6688C91.874 13.1428 91.6399 11.6729 90.2168 10.8256C88.7938 9.97827 86.9213 10.0227 85.3016 9.93848L78.0785 9.5593L20.6028 6.60079L6.40714 5.87052C5.23684 5.80966 4.07824 5.70902 2.91731 5.69029C2.26428 5.67859 1.5504 5.70902 1.07058 6.22161C0.630547 6.68973 0.602459 7.35914 0.579053 7.96301C0.513517 9.19651 0.466705 10.4323 0.417552 11.6658C0.0383759 21.153 -0.0825549 30.6465 0.05476 40.1462C0.190515 49.7161 0.588416 59.279 1.24846 68.8349C1.4045 71.1458 1.57927 73.4552 1.77276 75.763C1.89681 77.261 1.90617 79.0633 3.01795 80.2102C4.30528 81.5467 6.49608 81.2494 8.16726 81.2588C10.5375 81.2681 12.907 81.2564 15.2757 81.2236C34.0664 80.964 52.8133 79.3376 71.368 76.3576C73.6337 75.9924 75.8963 75.6086 78.1558 75.206C78.9211 75.0679 78.5958 73.9023 77.8351 74.0357L77.8304 74.038Z" fill="#3869FA"/>
  <path d="M1.90556 16.5322C25.0197 17.3608 48.1378 18.0068 71.2598 18.4702C77.7791 18.5982 84.2969 18.7136 90.8131 18.8166C91.5925 18.8283 91.5925 17.6182 90.8131 17.6065C67.6911 17.2492 44.5707 16.7078 21.4519 15.9822C14.9357 15.7762 8.42022 15.557 1.90556 15.3245C1.12848 15.2964 1.12848 16.4948 1.90556 16.5322Z" fill="#3869FA"/>
  <path d="M6.83786 10.8906C6.5999 11.0454 6.45499 11.3089 6.45166 11.5927C6.45451 11.8281 6.54749 12.0535 6.71147 12.2224C6.89981 12.4003 7.15345 12.4921 7.41202 12.4762C7.6706 12.4602 7.91101 12.3378 8.07603 12.1381C8.41074 11.7355 8.50436 11.1176 8.10646 10.7174C7.8833 10.5021 7.55452 10.4381 7.2669 10.5539C6.97929 10.6696 6.78652 10.9436 6.77466 11.2534C6.77719 11.5862 7.04571 11.8558 7.37854 11.8596C7.71021 11.8521 7.97732 11.585 7.98475 11.2534C7.98964 11.4256 7.89142 11.5841 7.73505 11.6565C7.57868 11.7288 7.39426 11.701 7.26619 11.5857C7.17724 11.3985 7.14916 11.3517 7.17724 11.457L7.1632 11.3751C7.1632 11.4429 7.1632 11.4289 7.1632 11.3353C7.14448 11.3985 7.14916 11.3915 7.17959 11.3119C7.14448 11.3704 7.1515 11.3657 7.20065 11.3119C7.16086 11.3493 7.16086 11.354 7.20065 11.3119C7.24361 11.2838 7.2946 11.2707 7.34577 11.2744C7.40684 11.2772 7.46631 11.2949 7.51897 11.3259C7.59153 11.3891 7.6126 11.4055 7.57983 11.3727C7.54706 11.34 7.5611 11.3587 7.6243 11.4312C7.68749 11.5038 7.66643 11.5483 7.6477 11.4898C7.68443 11.6648 7.60406 11.8435 7.44875 11.9321C7.72884 11.7578 7.82346 11.3948 7.66409 11.1059C7.50493 10.8578 7.10703 10.6846 6.83786 10.8882V10.8906Z" fill="#3869FA"/>
  <path d="M11.437 11.2813C11.2 11.437 11.0554 11.6999 11.0508 11.9834C11.0484 12.3765 11.2992 12.7265 11.6721 12.8506C12.0451 12.9748 12.4556 12.8449 12.6892 12.5288C13.0239 12.1262 13.1152 11.5083 12.7196 11.1081C12.4959 10.8934 12.1672 10.8298 11.8795 10.9453C11.5919 11.0609 11.3986 11.3343 11.3855 11.644C11.3715 11.8692 11.4837 12.0835 11.6766 12.2003C11.8696 12.3171 12.1115 12.3171 12.3045 12.2003C12.4974 12.0835 12.6096 11.8692 12.5956 11.644C12.6018 11.8163 12.5042 11.9755 12.3478 12.0481C12.1915 12.1206 12.0069 12.0924 11.8794 11.9764C11.7904 11.7892 11.76 11.7424 11.7881 11.8477V11.7658C11.7881 11.8336 11.7881 11.8196 11.7881 11.726C11.767 11.7892 11.7717 11.7821 11.8021 11.7026C11.767 11.7611 11.7764 11.7564 11.8255 11.6909C11.7857 11.7283 11.7857 11.733 11.8255 11.7026C11.8696 11.6749 11.9211 11.6618 11.973 11.6651C12.0333 11.6679 12.092 11.6856 12.1439 11.7166C12.2188 11.7798 12.2375 11.7962 12.2047 11.7634C12.1719 11.7307 12.1883 11.7494 12.2492 11.8219C12.31 11.8945 12.2937 11.939 12.2749 11.8804C12.3097 12.0558 12.2287 12.2338 12.0736 12.3228C12.3556 12.15 12.4515 11.7859 12.2913 11.4966C12.1298 11.2485 11.7343 11.0753 11.4627 11.2789L11.437 11.2813Z" fill="#3869FA"/>
  <path d="M16.0388 11.6741C15.8008 11.829 15.6559 12.0924 15.6526 12.3763C15.6584 12.6076 15.7512 12.8283 15.9124 12.9942C16.1007 13.1721 16.3544 13.264 16.613 13.2481C16.8715 13.2321 17.1119 13.1097 17.277 12.91C17.6117 12.5074 17.7053 11.8895 17.3074 11.4892C17.0842 11.274 16.7554 11.21 16.4678 11.3257C16.1802 11.4415 15.9874 11.7154 15.9756 12.0252C15.9756 12.3587 16.246 12.6291 16.5795 12.6291C16.913 12.6291 17.1833 12.3587 17.1833 12.0252C17.1896 12.1975 17.0919 12.3567 16.9356 12.4292C16.7792 12.5018 16.5946 12.4736 16.4671 12.3576C16.3782 12.1704 16.3477 12.1235 16.3782 12.2289L16.3641 12.1469C16.3641 12.2148 16.3641 12.2008 16.3641 12.1072C16.3454 12.1704 16.3501 12.1633 16.3805 12.0838C16.3454 12.1423 16.3524 12.1376 16.4016 12.0721C16.3618 12.1095 16.3618 12.1142 16.4016 12.0838C16.439 12.058 16.4414 12.0533 16.4016 12.0838C16.4458 12.0567 16.4972 12.0436 16.549 12.0463C16.6101 12.0491 16.6696 12.0668 16.7222 12.0978C16.7948 12.161 16.8159 12.1774 16.7808 12.1446C16.7456 12.1118 16.7644 12.1306 16.8276 12.2031C16.8908 12.2757 16.8697 12.3202 16.851 12.2616C16.8862 12.4365 16.8062 12.6143 16.652 12.704C16.9321 12.5297 17.0267 12.1666 16.8674 11.8778C16.7082 11.6297 16.3103 11.4565 16.0411 11.6601L16.0388 11.6741Z" fill="#3869FA"/>
  <path d="M11.2126 50.0857C11.0223 41.5566 11.0316 33.0259 11.2407 24.4936L10.6345 25.0975C20.4868 24.9258 30.333 25.1466 40.1728 25.7599L39.5666 25.163L39.1617 38.2563L38.9604 44.81L38.8597 48.0868C38.8363 48.789 38.9346 49.2571 38.1857 49.5099C37.7175 49.6667 37.0598 49.6105 36.573 49.6527L23.6646 50.8089C21.5253 50.9985 19.386 51.1975 17.2443 51.3824C15.1589 51.5603 13.0851 51.6796 11.0324 51.1694C10.2764 50.9821 9.95573 52.1501 10.7117 52.3397C12.8698 52.8733 15.0489 52.782 17.2443 52.5925C19.5381 52.3959 21.8319 52.1829 24.1257 51.9792L31.5009 51.2981C33.8415 51.0875 36.2406 51.0126 38.5625 50.6615C40.3905 50.3829 40.0511 48.5971 40.0979 47.1319L40.3203 39.876L40.7767 25.163C40.7705 24.8321 40.5037 24.5654 40.1728 24.5591C30.3423 23.9459 20.4962 23.7251 10.6345 23.8968C10.3027 23.903 10.0356 24.1712 10.0306 24.503C9.82153 33.0321 9.81217 41.5628 10.0025 50.095C10.0213 50.8721 11.229 50.8745 11.2126 50.095V50.0857Z" fill="#3869FA"/>
  <path d="M11.4556 40.9735L15.1163 37.5726C16.1532 36.6106 17.1971 35.3982 18.5055 34.8084C21.7168 33.3548 23.3599 37.823 25.1434 39.5761C26.5899 40.9992 28.7924 41.6452 30.5081 40.3251C31.3156 39.7025 31.8937 39.4053 32.9376 39.7611C33.6547 40.0264 34.3388 40.3735 34.9763 40.7956C36.2552 41.6146 37.3769 42.6562 38.2882 43.8711C38.7563 44.482 39.8049 43.8711 39.3321 43.2602C37.7241 41.142 35.1003 38.6984 32.3103 38.3871C31.779 38.308 31.2362 38.3895 30.7515 38.6212C30.061 38.9746 29.6374 39.6557 28.8392 39.8149C26.9387 40.1964 25.5624 38.3403 24.6262 37.0062C23.1212 34.8645 20.9959 32.4303 18.1029 33.6661C16.8647 34.1951 15.8934 35.2063 14.9221 36.1074L10.6037 40.1168C10.0325 40.6458 10.8892 41.5001 11.458 40.9711L11.4556 40.9735Z" fill="#3869FA"/>
  <path d="M28.4366 33.18C29.0772 33.2318 29.7075 33.3728 30.3091 33.599C30.7 33.7394 31.0557 33.379 31.0745 33.0162C31.06 32.6127 31.2265 32.2239 31.5285 31.9559C31.9381 31.6352 33.1552 31.4597 32.9844 32.5434C32.9388 32.7249 32.9783 32.9174 33.0917 33.0663C33.2051 33.2152 33.3801 33.3044 33.5672 33.3088C33.9578 33.3181 34.3453 33.3811 34.7188 33.496C35.4678 33.7301 35.7861 32.5598 35.0418 32.3257C34.5631 32.1813 34.067 32.1026 33.5672 32.0917L34.15 32.857C34.3466 31.6095 33.4806 30.4041 32.1418 30.4181C30.7374 30.4322 29.9322 31.7476 29.8667 33.0092L30.6321 32.4264C29.922 32.1704 29.1801 32.0129 28.4272 31.9582C27.6502 31.8951 27.6548 33.1051 28.4272 33.1683L28.4366 33.18Z" fill="#3869FA"/>
  <path d="M48.1865 56.0805L61.2774 55.5936C62.0522 55.5656 62.0568 54.3555 61.2774 54.3836L48.1865 54.8681C47.4094 54.8961 47.4071 56.1062 48.1865 56.0758V56.0805Z" fill="#3869FA"/>
  <path d="M49.2702 61.8725C50.3539 61.3623 51.9502 61.4816 53.1252 61.4325C54.3657 61.381 55.6085 61.3763 56.849 61.4021C57.6285 61.4208 57.6285 60.2107 56.849 60.1943C55.3159 60.1592 53.7829 60.1779 52.2498 60.2669C51.0537 60.3348 49.7617 60.309 48.6593 60.8286C47.9571 61.161 48.5704 62.2049 49.2702 61.8725Z" fill="#3869FA"/>
  <path d="M60.6782 61.3693C61.4553 61.3693 61.4576 60.1592 60.6782 60.1592C59.8988 60.1592 59.8965 61.3693 60.6782 61.3693Z" fill="#3869FA"/>
  <path d="M85.3931 14.4506C84.8828 14.4389 83.1016 14.0386 82.5844 14.0269C82.1912 11.354 84.7658 8.84252 87.4669 8.77698C90.1679 8.71145 90.0415 10.6495 91.2282 13.0626C91.0737 7.89692 95.2821 3.46617 100.041 1.44156C100.396 1.26703 100.781 1.16215 101.176 1.1326C102.346 1.10919 103.214 2.32162 103.249 3.47319C103.285 4.62477 102.711 5.71314 102.128 6.71492C104.167 8.40717 103.652 12.2247 101.237 13.3154C102.077 14.2516 101.021 15.6396 100.041 16.4143L99.1207 17.1399C98.243 17.8421 97.3395 18.5443 96.2698 18.872C97.9749 20.5908 100.033 21.9189 102.302 22.7644C100.74 24.3266 98.8372 25.5045 96.7426 26.2051C96.3845 26.3244 95.9843 26.4274 95.6426 26.2706C95.254 26.0904 95.0785 25.6457 94.9404 25.2407L93.7841 21.8913C91.8485 22.8276 89.4166 22.0388 87.8905 20.5221C86.3644 19.0054 85.5616 16.9199 84.9226 14.8649" fill="#CED9FD"/>
  <path d="M84.6931 6.48681C82.9062 4.67512 80.5355 3.55483 78.0013 3.32467C77.7091 3.28046 77.4105 3.30694 77.1306 3.40191C76.6625 3.59384 76.4284 4.10409 76.3231 4.57221C75.8924 6.59682 77.4208 8.60271 79.2676 9.53895C77.9288 9.92047 77.3225 11.8187 78.1932 12.9071C78.5209 13.3143 79.0031 13.6092 79.1997 14.0937C79.2869 14.3799 79.3403 14.6753 79.3589 14.9738C79.5555 16.2635 80.5619 17.3144 81.7252 17.8996C82.8885 18.4847 84.1922 18.7071 85.4912 18.892" fill="#CED9FD"/>
  <path d="M87.6565 11.1586L87.7221 11.2241L87.6565 11.1586Z" fill="#CED9FD"/>
  <path d="M85.3934 13.8395C84.4572 13.7763 83.535 13.4813 82.5847 13.4181L83.1885 14.022C82.9334 11.541 85.1617 9.34083 87.6357 9.37828C89.7258 9.40871 89.988 11.8312 90.7136 13.3573C90.9757 13.912 91.8464 13.6218 91.8394 13.0507C91.8019 9.71767 93.541 6.80596 95.9986 4.6573C97.2092 3.60001 98.5729 2.73197 100.043 2.08264C100.577 1.84858 101.183 1.57239 101.752 1.86731C102.321 2.16222 102.618 2.86674 102.651 3.46125C102.711 4.51686 102.119 5.5163 101.614 6.39636C101.479 6.63424 101.517 6.93269 101.707 7.12897C103.444 8.69951 103.025 11.7306 100.94 12.7815C100.653 12.9511 100.556 13.3191 100.722 13.6077C101.455 14.6353 99.863 15.7822 99.1608 16.3369C98.2082 17.0905 97.2743 17.87 96.118 18.2772C95.9136 18.3386 95.7559 18.5018 95.7014 18.7081C95.647 18.9144 95.7037 19.1342 95.8512 19.2884C97.6468 21.0602 99.7919 22.4384 102.15 23.3353L101.876 22.3358C100.641 23.5584 99.1906 24.5409 97.5973 25.2335C97.1291 25.4348 96.6751 25.7016 96.1531 25.5775C95.7575 25.6641 95.5492 25.498 95.5235 25.079L95.3058 24.4517L94.3696 21.7296C94.3151 21.5515 94.1833 21.4075 94.0107 21.3375C93.8381 21.2676 93.6432 21.2792 93.4801 21.3692C89.1547 23.2416 86.5262 17.9238 85.5081 14.7055C85.274 13.9658 84.1037 14.2818 84.3378 15.0261C85.0844 17.3831 86.0394 19.8641 88.0359 21.4511C89.7703 22.8297 92.0313 23.3072 94.0887 22.4131L93.1993 22.0526C93.6299 23.2978 93.9623 24.6624 94.5334 25.8514C94.9313 26.68 95.6101 27.0825 96.5393 26.893C98.8495 26.4248 101.078 24.8028 102.733 23.1901C103.084 22.8484 102.873 22.3382 102.466 22.179C100.305 21.3437 98.3421 20.0684 96.7008 18.434L96.434 19.4428C98.0584 18.8694 99.5891 17.6874 100.837 16.5101C101.787 15.6136 102.634 14.221 101.773 12.9992L101.555 13.8254C104.315 12.4351 104.858 8.34374 102.569 6.27465L102.662 7.00726C103.687 5.22138 104.661 2.68418 102.742 1.09023C101.068 -0.300084 98.6786 1.29854 97.19 2.26053C93.4942 4.6456 90.5825 8.5029 90.6363 13.0483L91.7645 12.7441C91.2238 11.6042 90.95 10.1694 90.1097 9.18401C89.3279 8.27352 88.1483 8.06286 86.9967 8.19862C84.1622 8.54269 81.6835 11.0963 81.9808 14.022C81.9917 14.3522 82.2568 14.6173 82.587 14.6282C83.5233 14.6914 84.4454 14.9863 85.3957 15.0495C86.1728 15.101 86.1705 13.8909 85.3957 13.8395H85.3934Z" fill="#3869FA"/>
  <path d="M85.1213 6.06289C83.8809 4.82877 82.382 3.88544 80.7327 3.30099C79.5999 2.90543 77.5752 2.24304 76.5033 3.08097C75.4313 3.9189 75.4898 5.59477 75.8947 6.71357C76.4167 8.19283 77.6033 9.32802 78.9562 10.063L79.099 8.95821C78.0514 9.32093 77.3097 10.259 77.1984 11.362C77.0252 12.9442 78.3687 13.4287 78.7175 14.7605C79.0662 16.0923 79.4337 17.0426 80.5899 17.8993C81.9615 18.9268 83.6795 19.217 85.332 19.4722C86.095 19.5869 86.4227 18.4236 85.655 18.3019C83.4712 17.9695 80.5174 17.4686 79.9697 14.9033C79.7895 14.0607 79.6701 13.5856 79.0615 12.9325C78.2657 12.0806 78.0902 10.62 79.4313 10.1238C79.8995 9.95296 80.0656 9.28589 79.5765 9.01906C78.6225 8.53681 77.8284 7.78899 77.2897 6.86571C76.6765 5.74925 76.515 3.74804 78.2985 3.96103C80.5643 4.25257 82.6689 5.28922 84.2811 6.90784C84.8358 7.45554 85.6854 6.59889 85.1354 6.05353L85.1213 6.06289Z" fill="#3869FA"/>
  <path d="M86.0438 11.7533C86.8209 11.7533 86.8232 10.5432 86.0438 10.5432C85.2644 10.5432 85.2644 11.7533 86.0438 11.7533Z" fill="#3869FA"/>
  <path d="M87.228 11.5782L87.2958 11.646C87.4484 11.7986 87.6709 11.8582 87.8793 11.8024C88.0878 11.7465 88.2506 11.5837 88.3065 11.3752C88.3624 11.1668 88.3028 10.9443 88.1502 10.7917L88.0823 10.7238C87.8464 10.4879 87.4639 10.4879 87.228 10.7238C86.992 10.9598 86.992 11.3422 87.228 11.5782Z" fill="#3869FA"/>
  <path d="M90.9634 68.5356C91.025 69.3405 91.0211 70.1491 90.9517 70.9534C90.9095 71.3841 90.9751 71.995 90.4836 72.208C90.2495 72.3133 89.9312 72.2829 89.676 72.3905C88.9739 72.6854 89.2781 73.8557 89.9967 73.5608C90.8276 73.2144 91.6609 73.4204 91.9558 72.3507C92.2858 71.1547 92.2507 69.7644 92.1641 68.5403C92.1103 67.7679 90.9025 67.7632 90.9564 68.5403L90.9634 68.5356Z" fill="#3869FA"/>
  <path d="M13.3094 64.7951C14.0888 64.7951 14.0888 63.585 13.3094 63.585C12.53 63.585 12.53 64.7951 13.3094 64.7951Z" fill="white"/>
  <path d="M13.9154 69.6345C14.6925 69.6345 14.6948 68.4268 13.9154 68.4268C13.136 68.4268 13.136 69.6345 13.9154 69.6345Z" fill="white"/>
  <path d="M16.6405 67.1288L17.0431 66.9275C17.3298 66.757 17.4259 66.3875 17.2584 66.0989C17.0849 65.818 16.7216 65.7223 16.4322 65.8813L16.0296 66.0849C15.7434 66.2545 15.6464 66.6225 15.8119 66.9111C15.9864 67.1924 16.3503 67.288 16.6405 67.1288Z" fill="white"/>
  <path d="M19.2942 69.9428L19.4955 69.5402C19.6642 69.2519 19.5672 68.8815 19.279 68.7128C18.9907 68.5441 18.6203 68.641 18.4516 68.9293L18.2503 69.3319C18.1412 69.5183 18.1398 69.7489 18.2467 69.9366C18.3537 70.1244 18.5526 70.2408 18.7687 70.2421C18.9847 70.2433 19.1851 70.1292 19.2942 69.9428Z" fill="white"/>
  <path d="M21.3729 66.2035C22.1523 66.2035 22.1523 64.9958 21.3729 64.9958C20.5935 64.9958 20.5935 66.2035 21.3729 66.2035Z" fill="white"/>
  <path d="M53.7618 39.5055L53.9631 39.1029C54.1311 38.8146 54.0337 38.4447 53.7454 38.2767C53.4571 38.1086 53.0872 38.2061 52.9192 38.4944L52.7155 38.8969C52.5706 39.1834 52.6741 39.5332 52.9517 39.6946C53.2292 39.8561 53.5844 39.7731 53.7618 39.5055Z" fill="white"/>
  <path d="M56.6457 34.3534H57.0483C57.2734 34.3674 57.4877 34.2552 57.6046 34.0622C57.7214 33.8693 57.7214 33.6274 57.6046 33.4344C57.4877 33.2414 57.2734 33.1293 57.0483 33.1433H56.6457C56.3261 33.1632 56.0771 33.4281 56.0771 33.7483C56.0771 34.0685 56.3261 34.3335 56.6457 34.3534Z" fill="white"/>
  <path d="M57.4532 39.7973C58.2303 39.7973 58.2326 38.5895 57.4532 38.5895C56.6738 38.5895 56.6738 39.7973 57.4532 39.7973Z" fill="white"/>
  <path d="M61.4837 38.7914C62.2608 38.7914 62.2632 37.5813 61.4837 37.5813C60.7043 37.5813 60.7043 38.7914 61.4837 38.7914Z" fill="white"/>
  <path d="M80.1244 40.2994L80.328 39.8968C80.4367 39.7104 80.4377 39.4801 80.3305 39.2927C80.2234 39.1053 80.0244 38.9893 79.8086 38.9884C79.5927 38.9875 79.3928 39.1018 79.2841 39.2883L79.0805 39.6885C78.9118 39.9768 79.0087 40.3472 79.297 40.5159C79.5852 40.6846 79.9557 40.5877 80.1244 40.2994Z" fill="white"/>
  <path d="M66.2558 22.3495C66.5011 22.8829 66.9016 23.3299 67.405 23.6322C67.6945 23.8002 68.0655 23.7017 68.2336 23.4122C68.4016 23.1226 68.3031 22.7516 68.0135 22.5836C67.8519 22.486 67.7072 22.3626 67.5852 22.2185C67.4687 22.0701 67.372 21.9072 67.2973 21.7339C67.1285 21.4466 66.7595 21.3494 66.4711 21.5163C66.1888 21.69 66.093 22.0549 66.2534 22.3448L66.2558 22.3495Z" fill="white"/>
  <path d="M70.5674 20.4511C70.4713 21.3136 70.5348 22.1863 70.7546 23.0258C70.9466 23.7795 72.1122 23.4611 71.9249 22.7051C71.7378 21.966 71.6886 21.1987 71.7798 20.4418C71.8688 19.6694 70.6587 19.6764 70.5721 20.4418L70.5674 20.4511Z" fill="white"/>
  <path d="M75.2247 20.4923L74.8549 22.3133C74.7004 23.0717 75.866 23.397 76.0252 22.634L76.395 20.813C76.5495 20.0546 75.3839 19.7293 75.2247 20.4923Z" fill="white"/>
  <path d="M82.8043 26.7648C83.352 28.0323 83.4478 29.4493 83.0759 30.779C82.8746 31.5326 84.0402 31.8533 84.2462 31.0996C84.6889 29.4589 84.55 27.7155 83.8529 26.1656C83.544 25.4518 82.5024 26.0673 82.809 26.7742L82.8043 26.7648Z" fill="white"/>
  <path d="M59.2112 29.2715C59.3063 28.7256 59.6761 28.2674 60.1896 28.0591C60.4758 27.8895 60.5727 27.5215 60.4073 27.2329C60.2336 26.9506 59.8687 26.8547 59.5787 27.0152C58.7854 27.3754 58.2145 28.0961 58.0456 28.9509C57.9639 29.2718 58.1497 29.6 58.4669 29.6952C58.789 29.7806 59.1202 29.5921 59.2112 29.2715Z" fill="white"/>
  <path d="M67.253 43.1441C70.8232 52.4924 74.5096 61.79 78.3123 71.0369C78.6049 71.7391 79.7752 71.4348 79.4826 70.7163C75.6721 61.4616 71.9825 52.16 68.4139 42.8117C68.1401 42.0931 66.9698 42.4044 67.2436 43.1347L67.253 43.1441Z" fill="white"/>
  <path d="M67.2082 58.642C68.3364 61.0895 69.3257 63.5987 70.1714 66.1577C70.4054 66.8926 71.5757 66.579 71.3417 65.837C70.4573 63.1791 69.4242 60.5731 68.2474 58.0311C67.9221 57.3289 66.8781 57.9398 67.2011 58.642H67.2082Z" fill="white"/>
</svg>
