<svg width="103" height="105" viewBox="0 0 103 105" fill="none" xmlns="http://www.w3.org/2000/svg">
  <path d="M29.6547 77.8383C35.6881 99.0514 35.8982 100.641 36.1431 101.114C37.7702 104.26 38.6339 105.167 48.7155 102.445C58.797 99.7232 68.0016 97.139 68.2502 96.265C76.3117 93.8401 76.2753 92.2307 71.9645 77.3713C70.5207 72.3946 67.9294 61.0775 66.8246 61.0451C65.7198 61.0126 53.5717 63.2326 53.5717 63.2326L30.0916 67.5526C30.0916 67.5526 27.9297 68.8361 28.1908 70.3419" fill="#CED9FD"/>
  <path d="M14.6067 37.6429C14.6067 37.6429 14.0668 31.927 16.6908 30.7233C19.3147 29.5197 18.2677 28.9179 18.2677 28.9179C18.2677 28.9179 18.1848 25.2271 22.6895 23.4567C27.1942 21.6862 48.7835 16.3174 48.7835 16.3174C48.7835 16.3174 56.4896 15.2611 57.715 16.1151C58.9403 16.9691 59.6886 18.2202 59.6836 18.5748C59.6785 18.9294 63.7438 18.1478 64.7607 19.0967C65.7777 20.0456 69.2629 25.6741 67.8844 28.2137C66.5059 30.7533 64.3916 31.0405 63.6609 30.8956C62.9302 30.7508 62.9277 35.4654 62.1292 37.1385C61.3308 38.8116 59.3094 44.0705 55.0282 44.6099C50.747 45.1493 48.8186 45.6238 49.032 47.2968C49.2455 48.9699 49.7426 55.3551 50.4959 56.4363C51.2492 57.5176 53.3007 56.7909 55.1236 57.5875C56.9466 58.3841 58.9177 58.8361 58.7344 60.2819C58.5511 61.7278 58.8424 62.4494 51.8418 63.9727C44.8412 65.496 32.1659 67.7484 34.9279 64.2873C37.69 60.8263 40.8664 60.5217 40.9995 59.4529C41.1325 58.3841 40.2462 53.8793 40.2462 53.8793C40.2462 53.8793 38.7923 46.7075 37.1125 47.137C35.4326 47.5665 33.9386 48.6353 31.4226 48.3281C28.9066 48.021 24.5652 47.3717 23.3524 44.3153L22.1371 41.2588C22.1371 41.2588 20.859 42.8819 19.4855 42.4699C18.112 42.0578 16.849 40.1076 16.849 40.1076" fill="#CED9FD"/>
  <path d="M38.3377 31.4343C38.6267 30.4039 38.7471 29.3339 38.6942 28.2654C39.7161 28.724 40.5866 29.4607 41.2052 30.3905C41.3433 30.6002 41.5115 30.8425 41.7626 30.845C41.9098 30.8307 42.05 30.7753 42.1669 30.6851C43.1377 30.1017 44.3006 29.9223 45.4035 30.1857C45.3297 31.075 45.0679 31.9387 44.6352 32.7203C44.3539 33.2197 43.9898 33.7816 44.1731 34.326C44.2774 34.5731 44.4312 34.7966 44.6251 34.9827C45.1253 35.5534 45.5475 36.1874 45.8806 36.8681C45.9477 36.9734 45.9728 37.0999 45.9509 37.2226C45.8982 37.385 45.6998 37.4499 45.5341 37.4724C44.598 37.6389 43.6338 37.543 42.7494 37.1952C42.182 36.9704 41.5366 36.6408 40.9918 36.9455C40.7996 37.0695 40.6298 37.2248 40.4896 37.4049C39.8818 38.0936 39.1427 38.6554 38.3151 39.058C38.2681 39.0861 38.2142 39.1008 38.1594 39.1005C38.0188 39.0805 37.9886 38.8932 37.9937 38.7534L38.1041 36.2812C38.1374 36.0766 38.0965 35.8668 37.9886 35.6894C37.8725 35.5708 37.727 35.4847 37.5668 35.4397C36.9792 35.2105 36.4252 34.9039 35.9196 34.5282C35.6887 34.3863 35.512 34.1719 35.4174 33.9189C35.3094 33.5244 35.6032 33.1124 35.9723 32.9376C36.3571 32.7922 36.7703 32.7366 37.1801 32.7753" fill="white"/>
  <path d="M31.5379 80.6117C30.8165 78.6232 30.2029 76.5976 29.6999 74.5437C29.4605 73.5448 29.2479 72.546 29.0621 71.5471C28.8311 70.2985 28.3741 68.8003 29.8957 68.2759C31.8342 67.6116 34.0639 67.4568 36.0777 67.0872L42.7318 65.8686L56.0399 63.4314L62.694 62.2128L64.4039 61.8982C64.7982 61.8258 65.4736 61.5611 65.8653 61.631C67.176 61.8682 67.2941 63.7061 67.6054 64.7774L71.8515 79.4231C72.085 80.2272 73.358 79.885 73.1069 79.076L68.7379 63.9808C68.311 62.515 68.09 60.1976 66.0687 60.3125C63.6984 60.4499 61.2326 61.179 58.8974 61.6085L43.3696 64.4503L35.4826 65.8961L31.5379 66.6178C30.6088 66.7876 29.6019 66.895 28.7633 67.3669C26.7344 68.5081 27.6082 71.0252 27.9748 72.8406C28.5417 75.5993 29.3095 78.3134 30.2724 80.9613C30.5536 81.7454 31.8241 81.4083 31.5278 80.6142L31.5379 80.6117Z" fill="#3869FA"/>
  <path d="M19.058 29.7729C17.3832 29.5632 15.7937 30.8816 14.8772 32.1477C13.5062 34.043 13.8904 36.4278 14.7015 38.4804C15.402 40.2459 16.4591 42.2012 18.3549 42.8929C19.9494 43.4722 21.7648 43.0527 22.7039 41.6043L21.5037 41.447C22.0059 44.4885 24.2657 46.9407 27.0805 48.1219C28.7898 48.8045 30.6309 49.098 32.4691 48.9809C33.3928 48.9294 34.3107 48.8025 35.2136 48.6013C35.6404 48.5064 36.0723 48.3266 36.5017 48.2717C37.6266 48.1269 37.9631 48.399 38.3347 49.303C39.088 51.1609 39.4722 53.2784 39.8563 55.2412C39.9442 55.6932 40.0296 56.1477 40.1074 56.6021C40.1978 57.1265 40.5569 58.2178 40.4263 58.7097C40.243 59.4014 39.2186 59.3515 38.5707 59.6212C35.7921 60.8138 33.9538 63.4928 33.8501 66.5008C33.8225 67.3398 35.1332 67.3398 35.1633 66.5008C35.229 64.6658 36.0807 62.9464 37.5036 61.7762C38.2298 61.1776 39.0832 60.7507 39.9995 60.5276C40.5167 60.4003 41.0892 60.3678 41.4583 59.9283C41.9003 59.4039 41.7396 58.6997 41.6542 58.0854C41.5086 57.0167 41.332 55.9545 41.1244 54.8991C40.7427 52.9413 40.3259 50.9162 39.6379 49.0408C39.1583 47.7298 38.287 46.7634 36.7879 46.9033C35.8564 46.9882 34.9424 47.3602 34.0259 47.5126C33.0174 47.6797 31.9933 47.735 30.9725 47.6774C27.1232 47.4526 23.4396 45.0679 22.7818 41.1049C22.6838 40.5131 21.8602 40.5206 21.584 40.9501C20.8307 42.1187 19.1835 42.0338 18.1365 41.3147C16.8509 40.4282 16.1277 38.7201 15.6782 37.2968C15.2011 35.8135 15.0178 34.2003 15.9821 32.8793C16.6751 31.9329 17.8151 30.9266 19.0705 31.0839C19.9067 31.1888 19.8992 29.8828 19.0705 29.7779L19.058 29.7729Z" fill="#3869FA"/>
  <path d="M19.5229 29.9661C18.182 28.4129 19.2718 26.203 20.7156 25.1666C22.0414 24.2177 23.6785 23.8107 25.2353 23.3637C29.1022 22.2475 32.9716 21.1363 36.8661 20.1174C40.7607 19.0986 44.6702 18.1822 48.625 17.4455C50.5685 17.0834 52.5346 16.7163 54.5032 16.5091C56.183 16.3318 59.5251 16.6264 58.9827 19.1436C58.8497 19.7628 59.5954 20.2573 60.08 19.7778C61.1748 18.6966 62.8873 18.7165 64.1629 19.4857C65.5765 20.3347 66.3449 21.9678 66.7843 23.4811C67.2514 25.1092 67.52 26.9771 66.8195 28.5652C66.144 30.111 64.4466 31.0923 62.8019 30.4081C62.2997 30.2034 61.8879 30.7802 61.9934 31.2122C63.0354 35.4174 61.4912 39.9996 57.8729 42.5043C56.2952 43.6049 54.4524 44.2701 52.5321 44.432C51.259 44.5319 49.544 44.2498 48.6878 45.4584C48.1856 46.1551 48.3463 46.9891 48.4367 47.7757C48.5949 49.0617 48.7656 50.3453 48.9389 51.6313C49.0845 52.755 49.2176 53.8787 49.3708 55.0049C49.4612 55.6766 49.5666 56.3808 50.0487 56.8977C51.1912 58.1313 52.9012 57.3048 54.3174 57.4296C56.4492 57.6194 58.1943 59.4823 58.3198 61.5799C58.3701 62.4164 59.6833 62.4214 59.6331 61.5799C59.5385 60.0154 58.8099 58.5559 57.6141 57.5351C56.4182 56.5143 54.8572 56.0194 53.2879 56.1636C52.851 56.206 52.3714 56.3384 51.9294 56.2959C50.8422 56.1861 50.7392 55.4219 50.6212 54.523C50.4756 53.3993 50.335 52.2755 50.1918 51.1493C50.0362 49.9432 49.873 48.7396 49.7298 47.5335C49.6445 46.8193 49.6219 46.1651 50.3977 45.8654C50.7995 45.7081 51.3519 45.778 51.7763 45.7655C55.4492 45.6935 58.8896 43.9633 61.1249 41.064C63.3602 38.1646 64.1474 34.4113 63.2639 30.8651L62.4579 31.6667C64.2558 32.4158 66.3022 31.6093 67.4397 30.1035C68.9337 28.1282 68.6952 25.3789 68.0473 23.134C67.4673 21.1363 66.3549 19.0487 64.3788 18.1222C62.6211 17.3057 60.542 17.4705 59.1485 18.8489L60.2458 19.4857C60.9036 16.4117 57.6871 14.9908 55.1184 15.1456C51.1736 15.3954 47.1586 16.3418 43.3168 17.2008C39.2993 18.0923 35.342 19.1386 31.3897 20.2423C29.3809 20.8067 27.3722 21.381 25.3634 21.9653C23.8443 22.4023 22.2824 22.8019 20.8813 23.5485C18.28 24.9319 16.4093 28.318 18.6215 30.8826C19.1739 31.5194 20.0979 30.5929 19.5505 29.9586L19.5229 29.9661Z" fill="#3869FA"/>
  <path d="M38.9699 31.1406C39.251 30.0506 39.3769 28.9267 39.3441 27.8019L38.3548 28.3663C39.0923 28.7031 39.7495 29.1916 40.2832 29.7996C40.597 30.1667 40.818 30.6836 41.2725 30.9059C41.5967 31.0554 41.9716 31.0508 42.2919 30.8934C43.3867 30.5063 44.0044 30.1218 45.2172 30.3515L44.7351 29.7222C44.6221 30.6961 44.2681 31.4502 43.8412 32.3142C43.5901 32.8386 43.3666 33.3605 43.5173 33.9524C43.6454 34.4518 44.0195 34.8139 44.3359 35.2009C44.5468 35.4681 44.7125 35.8177 44.9435 36.0599C45.3478 36.487 45.511 36.4195 44.7201 36.4345C43.5073 36.457 42.3371 35.5106 41.152 35.7353C39.8638 35.985 39.3139 37.6531 37.9957 37.9952L38.6335 38.165C38.6711 38.3598 38.6837 38.3174 38.6736 38.0327L38.7063 37.2835C38.7214 36.9539 38.7389 36.6243 38.7515 36.2847C38.7691 35.7853 38.8444 35.2259 38.518 34.8064C38.2443 34.4543 37.7647 34.3419 37.393 34.1571C37.0955 34.0473 36.8181 33.8895 36.572 33.6902L36.1828 33.428C36.3698 33.0613 36.7847 32.8695 37.1872 32.9635C38.0333 32.9635 38.0333 31.6575 37.1872 31.6575C36.1978 31.6575 34.9499 31.9072 34.7691 33.0709C34.6034 34.1446 35.7484 34.8039 36.5544 35.2259C37.5412 35.7403 37.4508 35.8951 37.4006 37.0538C37.378 37.5532 37.1922 38.3648 37.4608 38.8393C38.0233 39.8256 39.2512 38.8642 39.8212 38.4372C40.2857 38.0876 40.705 37.4084 41.1896 37.1512C41.8073 36.8216 42.9122 37.5258 43.5349 37.6506C44.3233 37.798 46.0458 38.0177 46.5054 37.0988C46.9272 36.2522 45.8927 35.101 45.4206 34.4892C44.7376 33.6202 45.059 32.9335 45.4558 32.0421C45.7697 31.3058 45.9679 30.5259 46.0433 29.7297C46.0437 29.4358 45.8462 29.1781 45.5612 29.1004C44.9013 28.9567 44.2206 28.9339 43.5525 29.033C43.2135 29.0904 42.0459 29.7122 41.7948 29.6348C41.496 29.5399 40.9586 28.591 40.6975 28.3538C40.1942 27.9068 39.6294 27.5334 39.0202 27.2451C38.8166 27.1316 38.568 27.133 38.3657 27.2487C38.1634 27.3644 38.0372 27.5774 38.0333 27.8094C38.0649 28.8185 37.955 29.827 37.7069 30.806C37.4985 31.6225 38.764 31.9696 38.9624 31.1531L38.9699 31.1406Z" fill="#3869FA"/>
  <path d="M18.6822 34.7727C19.7669 34.3282 20.3319 37.6794 20.5327 38.3461C20.7713 39.1502 22.0393 38.8056 21.7882 37.999C21.3614 36.5756 20.7512 32.5203 18.3231 33.5042C17.5522 33.8188 17.8912 35.0849 18.6721 34.7527L18.6822 34.7727Z" fill="#3869FA"/>
  <path d="M61.953 21.9986C61.1439 22.2619 60.562 22.9683 60.4615 23.809C60.2556 25.2224 61.2926 26.4285 61.1068 27.8344C60.9989 28.6634 62.3121 28.6559 62.4201 27.8344C62.4882 27.1365 62.3937 26.4324 62.1439 25.7767C61.9279 25.105 61.255 23.6267 62.3021 23.2571C63.093 22.9774 62.7515 21.7139 61.953 22.0086V21.9986Z" fill="#3869FA"/>
  <path d="M28.7907 10.3899L30.7367 14.1006C31.1285 14.8498 32.2609 14.1855 31.8717 13.4414L29.9257 9.73065C29.534 8.98151 28.399 9.64575 28.7907 10.3899Z" fill="#3869FA"/>
  <path d="M37.4041 6.3893V12.0403C37.4041 12.8819 38.7173 12.8819 38.7173 12.0403V6.3893C38.7173 5.54776 37.4041 5.54776 37.4041 6.3893Z" fill="#3869FA"/>
  <path d="M37.6227 2.24838C38.4689 2.24838 38.4689 0.942383 37.6227 0.942383C36.7765 0.942383 36.7765 2.24838 37.6227 2.24838Z" fill="#3869FA"/>
  <path d="M47.0353 3.3847C46.7382 5.46225 46.2447 7.5073 45.5614 9.49269C45.2877 10.2893 46.5658 10.6314 46.8169 9.83979C47.5005 7.85363 47.994 5.80772 48.2908 3.7293C48.4088 2.90774 47.1458 2.55315 47.0353 3.3847Z" fill="#3869FA"/>
  <path d="M22.388 16.9947L23.4853 17.6464C23.7967 17.8088 24.1814 17.6989 24.3588 17.3969C24.5361 17.095 24.4434 16.7077 24.1482 16.5177L23.0509 15.8684C22.7382 15.6864 22.3363 15.7909 22.1532 16.1019C21.9702 16.4129 22.0753 16.8126 22.388 16.9947Z" fill="#3869FA"/>
  <path d="M17.276 13.5599C18.1197 13.5599 18.1222 12.2539 17.276 12.2539C16.4298 12.2539 16.4298 13.5599 17.276 13.5599Z" fill="#3869FA"/>
  <path d="M43.1109 73.8616C45.421 72.9751 47.8315 72.4432 50.242 71.9013C52.8007 71.327 55.3744 70.6078 57.9858 70.3256C58.817 70.2357 58.827 68.9272 57.9858 69.0196C55.402 69.2993 52.871 69.9735 50.3399 70.5429C47.8089 71.1122 45.2151 71.6616 42.7618 72.603C41.9834 72.9027 42.3224 74.1662 43.1109 73.8516V73.8616Z" fill="white"/>
  <path d="M46.6392 77.5598L53.6474 75.9841C54.4709 75.7994 54.1219 74.5408 53.2983 74.7356L46.2902 76.3113C45.4666 76.4961 45.8156 77.7546 46.6392 77.5598Z" fill="white"/>
  <path d="M56.0844 75.5218C56.9305 75.5218 56.9305 74.2158 56.0844 74.2158C55.2382 74.2158 55.2382 75.5218 56.0844 75.5218Z" fill="white"/>
  <path d="M48.9445 81.247C50.3737 81.1142 51.7907 80.8729 53.183 80.5253C54.0016 80.318 53.655 79.0595 52.834 79.2767C51.5569 79.601 50.2565 79.8264 48.9445 79.9509C48.1108 80.0284 48.1033 81.3369 48.9445 81.257V81.247Z" fill="white"/>
  <path d="M55.7689 20.6919C57.1794 23.6993 58.1833 26.8791 58.7544 30.1486C59.2917 33.2525 59.5077 37.2379 56.4543 39.1532C55.7387 39.5977 56.3991 40.7289 57.1172 40.2795C60.2057 38.3492 60.6728 34.6484 60.2509 31.3222C59.7257 27.4052 58.5914 23.5932 56.8887 20.0227C56.5322 19.2611 55.4023 19.9228 55.7563 20.6819L55.7689 20.6919Z" fill="white"/>
  <path d="M54.8447 41.0694V40.9245C54.8447 40.5646 54.5512 40.2728 54.1893 40.2728C53.8274 40.2728 53.5339 40.5646 53.5339 40.9245V41.0694C53.5339 41.4293 53.8274 41.7211 54.1893 41.7211C54.5512 41.7211 54.8447 41.4293 54.8447 41.0694Z" fill="white"/>
  <path d="M45.5364 46.7259C45.5157 50.1483 45.8234 53.5649 46.4554 56.9292C46.6086 57.7532 47.8741 57.4061 47.7109 56.5821C47.106 53.3317 46.8143 50.0314 46.8396 46.7259C46.8396 45.8869 45.5339 45.8844 45.5264 46.7259H45.5364Z" fill="white"/>
  <path d="M51.8896 60.4305C52.6459 60.2681 53.4058 60.6893 53.6648 61.4144C53.931 62.206 55.2015 61.8664 54.9203 61.0673C54.4516 59.6588 52.9818 58.8365 51.528 59.1695C50.7044 59.3592 51.0534 60.6178 51.877 60.4305H51.8896Z" fill="white"/>
  <path d="M35.4632 99.9376C36.1171 101.259 36.65 102.895 37.5994 104.036C38.3533 104.941 39.312 104.897 40.3731 104.642C43.7472 103.828 47.0865 102.83 50.4373 101.925L60.2781 99.2711L65.1996 97.9428C66.2747 97.6512 67.7034 97.5332 68.2968 96.4664C68.6784 95.7721 67.6266 95.1728 67.2473 95.8555C66.9378 96.4085 65.8767 96.5057 65.3229 96.6538L63.3171 97.1977L59.2914 98.2853L51.0097 100.518L42.9561 102.691C41.7205 103.025 39.3469 104.14 38.3533 102.997C37.9717 102.56 37.76 101.84 37.5063 101.331L36.515 99.3267C36.1683 98.6324 35.1188 99.2411 35.4632 99.9376Z" fill="#3869FA"/>
  <path d="M11.8359 95.3774C10.9703 94.3302 10.2949 93.0173 10.4464 91.6713C10.5979 90.3252 11.8384 89.0558 13.1842 89.2627C13.8648 89.3674 14.4402 89.8041 14.9821 90.2281C13.7595 87.3802 15.3057 83.6766 18.1976 82.5324C19.1665 82.1151 20.2552 82.0643 21.2591 82.3893C22.6768 82.9002 23.5706 84.2794 24.2512 85.6229C25.053 87.2222 25.6856 88.8999 26.1389 90.6291C26.4516 90.2738 26.8989 90.0639 27.3735 90.0498C27.8481 90.0358 28.3071 90.2188 28.6405 90.5551C28.941 90.8897 29.0874 91.3213 29.3365 91.7019C30.077 92.7407 31.4737 93.0784 32.6111 92.4937" fill="#CED9FD"/>
  <path d="M0.758944 96.3575H11.5691C12.5784 96.3575 12.5784 94.7969 11.5691 94.7969H0.758944C-0.252981 94.7969 -0.252981 96.3575 0.758944 96.3575Z" fill="#3869FA"/>
  <path d="M12.3898 94.8258C11.6013 93.822 10.8 92.3713 11.4267 91.0916C12.1741 89.5591 13.5173 90.0853 14.5857 90.9C15.1148 91.3062 15.9752 90.6293 15.7363 90.0188C14.6833 87.3216 16.0651 83.8096 19.0469 83.0791C23.0227 82.1085 24.6228 88.0368 25.383 90.8387C25.4613 91.1031 25.6729 91.3074 25.9408 91.3774C26.2088 91.4474 26.4941 91.3729 26.6929 91.181C27.8563 90.0137 28.8323 92.6165 29.8057 93.1401C30.8045 93.666 31.9979 93.6765 33.0058 93.1682C33.9227 92.7493 33.1266 91.4032 32.2148 91.8221C30.2089 92.7365 29.9598 90.3432 28.6679 89.5974C27.6511 89.0373 26.3818 89.2351 25.5859 90.0776L26.8983 90.4224C25.871 86.6524 23.7598 80.2772 18.6334 81.5747C14.8965 82.5223 12.8598 86.9385 14.2262 90.4352L15.3793 89.554C13.6842 88.2565 11.5448 88.0061 10.2427 90.0086C8.94053 92.0111 9.96529 94.2588 11.27 95.9292C11.8915 96.7185 12.9934 95.6074 12.3795 94.8258H12.3898Z" fill="#3869FA"/>
  <path d="M72.0171 52.2598C71.2385 51.2826 71.2006 49.912 71.924 48.8937C72.6474 47.8754 73.9591 47.453 75.1454 47.8564C74.1526 46.7793 73.9844 45.1834 74.7311 43.9251C75.4777 42.6668 76.9637 42.0417 78.3917 42.3853C80.3565 42.8757 81.4172 44.9395 82.2288 46.781C81.4917 44.6866 83.4077 42.1528 85.6345 42.2754C88.2413 42.4185 89.7053 45.246 90.6401 47.6699L91.9243 51.0108C92.9208 50.0657 94.5081 50.9163 95.7332 51.542C97.4642 52.4232 99.4176 52.7785 101.35 52.5637" fill="#CED9FD"/>
  <path d="M63.758 53.6876H71.7866V52.127H71.0803C70.071 52.127 70.0684 53.6876 71.0803 53.6876H71.7866C72.796 53.6876 72.796 52.127 71.7866 52.127H63.758C62.7486 52.127 62.7461 53.6876 63.758 53.6876Z" fill="#3869FA"/>
  <path d="M72.6954 51.8675C71.4935 50.1588 72.8572 48.0363 74.9376 48.6084C75.7441 48.8306 76.1755 47.8753 75.7081 47.3058C74.1671 45.454 75.7646 42.5856 78.1917 43.1399C79.9895 43.5536 80.8884 45.6711 81.5613 47.1755C81.926 47.9928 83.2333 47.4079 82.9945 46.5753C82.645 45.2778 83.2581 43.9144 84.4636 43.3084C85.6604 42.7057 86.9112 43.288 87.7742 44.1641C89.572 45.9955 90.286 48.897 91.1823 51.2188C91.3441 51.6351 91.8938 52.0208 92.3355 51.6862C93.5581 50.7641 95.5459 52.3911 96.7685 52.8177C98.246 53.3154 99.8142 53.4897 101.366 53.3285C102.365 53.2391 102.375 51.676 101.366 51.7679C99.1776 51.9697 97.4003 51.4333 95.4458 50.5113C94.1899 49.9161 92.767 49.4104 91.5445 50.3299L92.6951 50.7973C91.5265 47.7681 90.4298 43.0249 86.9626 41.7606C83.747 40.5882 80.5597 43.7784 81.4817 46.9814L82.9149 46.3811C81.7719 43.8269 79.7507 40.7032 76.4401 41.6865C73.4326 42.5779 72.7031 46.1206 74.5986 48.4015L75.3691 47.0963C72.0302 46.1794 69.3335 49.7757 71.3522 52.6466C71.9275 53.4639 73.2887 52.6849 72.7083 51.8599L72.6954 51.8675Z" fill="#3869FA"/>
</svg>
