<svg width="98" height="68" viewBox="0 0 98 68" fill="none" xmlns="http://www.w3.org/2000/svg">
  <path d="M88.6833 57.4258C91.0485 56.5027 93.8078 55.0681 93.95 52.5333C94.0124 51.4231 93.5259 50.3678 93.0494 49.3648L91.2306 45.5351C91.036 45.1235 90.8364 44.6819 90.9038 44.2303C90.9711 43.7787 91.4302 43.3621 91.8568 43.5168C92.3558 44.8465 94.1022 45.4403 95.4195 44.879C96.7368 44.3176 97.4953 42.8381 97.4529 41.4186C97.4104 39.999 96.6595 38.6742 95.6391 37.6762C94.5812 36.6533 93.1442 35.9298 91.6722 36.072C90.2002 36.2142 88.8055 37.3868 88.7307 38.8563L86.3556 32.4444C86.0587 31.641 85.6071 30.698 84.7389 30.6356C84.2698 30.5957 83.8307 30.8477 83.4265 31.0922L77.112 34.8919C76.4009 35.321 75.615 35.8749 75.5527 36.7032C75.4928 37.6113 76.371 38.3074 77.2292 38.6043C78.0875 38.9012 79.048 38.991 79.7815 39.5249C80.7795 40.2509 81.1038 41.6955 80.6996 42.8656C80.2955 44.0357 79.2875 44.9239 78.1498 45.4079C76.5082 46.109 74.178 45.7622 73.5542 44.0906C73.195 43.1301 73.5118 42.0647 73.4844 41.0393C73.4569 40.0139 72.7484 38.8064 71.738 38.9711C71.4708 39.0326 71.2171 39.1425 70.9895 39.2954C67.3205 41.4536 63.8134 43.8758 60.4959 46.5431C59.8947 47.0271 59.2635 47.5685 59.0689 48.3169C58.8643 49.1053 59.1911 49.9262 59.5229 50.6721C61.9388 56.0838 64.9317 61.2189 68.4497 65.9883C68.9162 66.6195 69.4975 67.3006 70.2809 67.3331C70.7255 67.3128 71.1582 67.1835 71.5409 66.9563L78.3943 63.5857" fill="#3869FA"/>
  <path d="M73.7486 45.3757C72.6159 31.7885 71.4849 18.2013 70.3556 4.61405C70.2957 3.89053 70.2084 3.11711 69.7044 2.5857C69.148 2.00938 68.2648 1.93952 67.459 1.90459C46.1706 0.998326 24.8484 1.26652 3.58959 2.70795C1.9017 2.82477 0.592985 4.22945 0.59571 5.92138V6.72973C0.595174 6.9862 0.626177 7.24176 0.688021 7.49067C0.854348 15.0785 1.01568 22.6671 1.17203 30.2566C5.1425 29.6673 9.14676 29.334 13.16 29.2587C13.4553 29.2359 13.7522 29.268 14.0357 29.3535C15.0611 29.7327 15.0861 31.2246 14.5746 32.1926C14.0632 33.1607 13.2124 33.9815 13.0428 35.0618C12.7459 36.9404 14.7293 38.4823 16.6204 38.6944C17.9303 38.8391 19.3349 38.5422 20.3229 37.6665C21.3109 36.7907 21.7674 35.2838 21.2185 34.0838C20.8169 33.2006 19.9711 32.6168 19.3324 31.8908C18.5465 31.0051 18.0475 29.553 19.27 28.7622C19.6396 28.5322 20.0648 28.4071 20.5 28.4004L29.3694 28.1509C29.5077 28.1442 29.6463 28.1501 29.7835 28.1684C31.2605 28.3879 31.2106 29.8325 31.031 30.9527L29.8783 38.1505C30.7191 36.8257 32.6227 36.4639 34.0673 37.1026C35.5118 37.7413 36.4649 39.1684 36.9114 40.6728C37.3431 42.1248 37.3406 43.754 36.637 45.0963C35.9334 46.4385 34.4415 47.4065 32.9371 47.2444C31.4327 47.0822 30.1104 45.6102 30.3424 44.1133C30.0255 43.7465 29.3794 43.8937 29.0825 44.2779C28.7856 44.6622 28.7382 45.1761 28.7032 45.6601C28.5984 47.157 28.4928 48.6598 28.3864 50.1684C28.3016 51.351 28.2018 52.5859 27.5631 53.5839C27.4388 53.7687 27.4264 54.0069 27.5308 54.2037C27.6352 54.4004 27.8393 54.5237 28.062 54.5245C41.6376 54.3249 55.2082 53.9307 68.7738 53.3419C69.5747 53.3095 70.393 53.2695 71.134 52.9602C73.7935 51.8749 73.9856 48.2348 73.7486 45.3757Z" fill="#CED9FD"/>
  <path d="M88.8381 57.9869C90.9563 57.1461 93.556 55.976 94.3269 53.6258C94.7535 52.3335 94.4242 51.0411 93.9003 49.8311C93.571 49.0826 93.1992 48.3342 92.8424 47.5857C92.7152 47.3137 91.1135 44.0654 91.8445 44.0928L91.3455 43.8059C92.1414 45.5324 94.3868 46.1686 96.0209 45.218C97.967 44.0853 98.426 41.548 97.6252 39.5796C96.7869 37.5113 94.7361 35.6975 92.4582 35.4929C90.3251 35.2983 88.399 36.7104 88.1396 38.8535L89.2847 38.6989L87.2489 33.2101C86.8572 32.1523 86.5004 30.6853 85.3278 30.2012C84.0928 29.6848 82.8529 30.7576 81.8624 31.3514C80.1808 32.3643 78.4693 33.3473 76.8102 34.3927C75.8697 34.989 74.8143 35.7823 74.9815 37.0398C75.1212 38.13 76.1117 38.8186 77.0672 39.1704C77.908 39.4798 78.9409 39.5072 79.6195 40.1559C80.1808 40.7528 80.4072 41.5904 80.2233 42.3888C79.849 44.1677 77.7832 45.3378 76.0543 45.1557C72.1872 44.7515 75.6576 39.8241 72.5914 38.5267C71.4761 38.0552 70.4083 38.9484 69.5027 39.4997C67.9459 40.4495 66.419 41.4474 64.922 42.4936C63.5133 43.4766 62.1319 44.502 60.778 45.5698C59.7401 46.3856 58.4677 47.2663 58.4054 48.7209C58.343 50.1754 59.3435 51.7597 59.9572 53.0395C60.7456 54.6812 61.588 56.2962 62.4845 57.8846C63.4559 59.6028 64.4871 61.2852 65.5782 62.9318C66.5362 64.3764 67.5342 66.3498 68.9463 67.4077C70.2262 68.3657 71.4113 67.6571 72.6712 67.0459L78.659 64.0969C79.3326 63.7651 78.7438 62.7597 78.0727 63.099L73.7889 65.2022C73.0779 65.5514 72.3768 65.9506 71.6483 66.255C71.2341 66.4321 70.5505 66.7939 70.084 66.734C69.5551 66.6667 69.086 65.9007 68.7916 65.524C66.9795 63.0865 65.3197 60.5394 63.8218 57.8971C63.1033 56.648 62.4172 55.3798 61.7635 54.0924C61.04 52.6703 59.9098 50.9513 59.6304 49.3695C59.326 47.663 61.3918 46.5428 62.5569 45.6546C63.8875 44.6417 65.2455 43.6679 66.6311 42.7331C67.8286 41.9248 69.0444 41.1464 70.2786 40.3979C71.0046 39.9588 71.9776 39.2428 72.6288 40.1309C73.1552 40.8495 72.791 42.0171 72.786 42.8254C72.786 44.8213 74.0459 46.1761 76.0468 46.3308C78.0477 46.4854 80.1684 45.3328 81.0516 43.5165C81.9348 41.7002 81.2536 39.4873 79.385 38.6714C78.7363 38.387 78.0277 38.3097 77.3716 38.0552C76.7154 37.8007 76.4684 37.6236 76.3462 36.925C76.1965 36.0568 76.7104 35.8522 77.3915 35.4106C78.8885 34.4301 80.4827 33.5494 82.0221 32.6238C82.8204 32.1423 83.6263 31.4212 84.5669 31.4412C85.228 31.4562 85.2929 31.5734 85.5798 32.1423C85.7848 32.5953 85.9647 33.0592 86.1187 33.5319L88.152 39.0207C88.2377 39.2929 88.507 39.4639 88.7898 39.4257C89.0726 39.3875 89.2868 39.1512 89.2972 38.866C89.5192 37.0522 91.5077 36.3711 93.0745 36.8052C94.534 37.2144 95.8189 38.4444 96.4376 39.7991C97.0563 41.1538 97.0189 42.8379 95.8663 43.8982C95.3514 44.3869 94.633 44.5983 93.9356 44.4664C93.2381 44.3344 92.6466 43.8751 92.346 43.2321C92.2426 43.0541 92.0528 42.944 91.847 42.9427C88.3965 42.7631 92.0216 48.5637 92.5356 49.6789C93.3464 51.4253 93.803 53.1219 92.3385 54.6462C91.3181 55.7091 89.8635 56.3478 88.5188 56.8917C87.8302 57.1661 88.1296 58.2938 88.8282 58.0169L88.8381 57.9869Z" fill="#3869FA"/>
  <path d="M74.3229 45.3224C73.5095 35.4625 72.687 25.6043 71.8554 15.7478L71.2342 8.29309C71.1369 7.13296 71.0446 5.97283 70.9448 4.80023C70.8774 4.02432 70.8325 3.18853 70.4134 2.50991C69.5077 1.0504 67.4195 1.26246 65.9649 1.1976C63.49 1.0978 61.0142 1.01464 58.5376 0.948107C48.7144 0.681985 38.8903 0.66452 29.0654 0.895714C24.1954 1.01048 19.327 1.18762 14.4603 1.42713C11.987 1.54688 9.51372 1.68327 7.04045 1.83629C5.26907 1.94607 2.99871 1.68909 1.49928 2.83425C0.316698 3.7374 -0.0325877 5.0597 0.00234091 6.48428C0.049744 8.76961 0.171994 11.0724 0.221892 13.3677C0.341647 18.9779 0.460571 24.5873 0.578662 30.1958C0.582324 30.3785 0.669885 30.5493 0.816057 30.6589C0.96223 30.7685 1.15073 30.8048 1.32713 30.7571C3.73887 30.4079 6.16058 30.1501 8.59227 29.9837C9.63181 29.9139 10.6739 29.8615 11.7184 29.8265C12.3995 29.8041 13.0082 29.7367 13.6594 29.9538C14.4603 30.2207 14.4079 30.9293 14.1584 31.6279C13.612 33.1023 12.2273 34.0803 12.4718 35.8118C12.6664 37.184 13.7966 38.2418 15.0116 38.7857C17.7136 39.9982 21.7953 38.7608 22.0298 35.4151C22.1471 33.736 21.0468 32.8129 19.9989 31.6927C19.016 30.6424 18.7116 29.3176 20.4979 28.9309C21.6231 28.6814 23.0402 28.8585 24.1929 28.8261L28.1373 28.7138C29.4771 28.6764 30.6122 28.5841 30.5249 30.2282C30.3902 32.7855 29.7216 35.4126 29.3149 37.9424C29.2494 38.2208 29.3943 38.5059 29.6579 38.617C29.9214 38.728 30.2266 38.6328 30.3802 38.3915C31.2709 37.1441 33.0148 37.0543 34.2498 37.8077C35.6469 38.661 36.4029 40.3425 36.5775 41.9168C36.7672 43.6034 36.2258 45.4097 34.6415 46.2629C33.9054 46.69 33.008 46.7337 32.2339 46.3802C31.2909 45.9112 31.0863 45.1702 30.9116 44.2321C30.7744 43.4836 30.2181 43.0944 29.4147 43.3339C28.3968 43.6308 28.2097 44.6986 28.1298 45.6068C27.9976 47.1037 27.9227 48.6131 27.8105 50.1151C27.7877 50.857 27.6789 51.5938 27.4861 52.3106C27.3439 52.7671 26.9148 53.3085 26.8849 53.8075C26.84 54.556 27.4038 54.9826 28.0724 55.0749C29.8064 55.3244 31.7799 55.0175 33.5363 54.9851C37.0108 54.9202 40.487 54.8429 43.9649 54.7531C50.9157 54.5734 57.8657 54.3431 64.8148 54.062C67.4394 53.9547 71.1768 54.5111 73.0355 52.1983C74.5324 50.3271 74.5125 47.5877 74.3378 45.3248C74.2804 44.5764 73.1153 44.5764 73.1727 45.3248C73.3972 48.2339 73.3099 52.3106 69.5875 52.6823C65.3861 53.0915 61.0899 53.0491 56.8636 53.1963C48.341 53.494 39.8168 53.7152 31.2909 53.8599L29.5444 53.8873C29.2949 53.8873 29.0454 53.9073 28.796 53.8998C28.6291 53.9153 28.4608 53.9052 28.297 53.8699C27.9602 53.8998 27.9427 53.7751 28.2421 53.4931C28.4267 52.7447 28.7411 52.0985 28.8434 51.3151C28.9681 50.3171 29.008 49.3192 29.0779 48.3212L29.2051 46.5174C29.2226 46.2679 29.2875 44.04 30.0309 44.5739L29.7415 44.0749C29.5744 46.2754 31.6002 48.0667 33.7658 47.7649C36.1784 47.433 37.6753 45.1876 37.7726 42.8799C37.8699 40.5721 36.7746 37.8901 34.6789 36.715C32.8871 35.6786 30.603 36.1496 29.3673 37.8102L30.4326 38.2593C30.8293 35.7644 31.3058 33.292 31.6227 30.7971C31.7699 29.6444 31.7 28.3022 30.5075 27.7433C29.6417 27.3391 28.554 27.5437 27.6358 27.5687L23.4469 27.6884C21.8352 27.7333 19.1756 27.2917 18.2076 28.9933C17.4591 30.2981 18.3648 31.7376 19.2854 32.6533C20.1162 33.4916 21.0643 34.2974 20.8123 35.6222C20.5603 36.947 19.3328 37.8177 18.0355 38.0397C15.6678 38.4439 12.5118 36.6276 14.0736 33.988C14.822 32.7007 15.9622 31.3834 15.2686 29.7891C14.9772 29.115 14.3258 28.6672 13.592 28.6365C12.2024 28.4918 10.6855 28.6964 9.29833 28.7787C6.52151 28.9434 3.75467 29.2427 1.00279 29.6419L1.75126 30.2033L1.45936 16.5936L1.31715 9.91227C1.29969 9.03657 1.31715 8.15088 1.2448 7.28016C1.19241 6.65893 1.09261 5.98531 1.21985 5.36158C1.71883 2.94652 4.41083 3.17855 6.31194 3.05879C8.53739 2.91908 10.7628 2.79184 12.9883 2.67707C17.524 2.44255 22.0614 2.26209 26.6004 2.13568C35.6802 1.8812 44.7616 1.84045 53.8447 2.01343C58.378 2.10075 62.9361 2.14815 67.4619 2.43507C68.7542 2.5149 69.5601 2.84672 69.7397 4.27381C69.8869 5.43892 69.9418 6.6215 70.0391 7.79161C70.2271 10.0287 70.4134 12.2658 70.598 14.5029C71.4529 24.7769 72.3078 35.05 73.1627 45.3224C73.2201 46.0658 74.3852 46.0708 74.3229 45.3224Z" fill="#3869FA"/>
  <path d="M44.1625 46.3614V46.1668C44.1424 45.8598 43.8875 45.6211 43.5799 45.6211C43.2723 45.6211 43.0174 45.8598 42.9973 46.1668V46.3614C42.9831 46.5786 43.0909 46.7857 43.2771 46.8987C43.4632 47.0116 43.6966 47.0116 43.8828 46.8987C44.0689 46.7857 44.1767 46.5786 44.1625 46.3614Z" fill="white"/>
  <path d="M42.8375 39.1985L43.0321 39.0039C43.1919 38.8591 43.2588 38.638 43.2062 38.4288C43.1536 38.2197 42.99 38.0566 42.7807 38.0046C42.5714 37.9527 42.3506 38.0203 42.2062 38.1805L42.0116 38.3751C41.8518 38.5199 41.7849 38.741 41.8375 38.9502C41.8901 39.1593 42.0537 39.3224 42.263 39.3744C42.4722 39.4263 42.6931 39.3587 42.8375 39.1985Z" fill="white"/>
  <path d="M46.1411 43.086L46.5278 42.6968C46.7552 42.4694 46.7552 42.1008 46.5278 41.8735C46.3005 41.6461 45.9319 41.6461 45.7045 41.8735L45.3153 42.2602C45.0873 42.4882 45.0873 42.8579 45.3153 43.086C45.5434 43.314 45.9131 43.314 46.1411 43.086Z" fill="white"/>
  <path d="M49.8084 39.9482C50.5569 39.9482 50.5569 38.7831 49.8084 38.7831C49.06 38.7831 49.06 39.9482 49.8084 39.9482Z" fill="white"/>
  <path d="M16.776 15.0829C17.5244 15.0829 17.5244 13.9153 16.776 13.9153C16.0275 13.9153 16.0275 15.0829 16.776 15.0829Z" fill="white"/>
  <path d="M23.7716 12.3594C24.52 12.3594 24.52 11.1943 23.7716 11.1943C23.0231 11.1943 23.0231 12.3594 23.7716 12.3594Z" fill="white"/>
  <path d="M20.5808 18.1287L20.9675 17.9316C21.2434 17.7682 21.3358 17.4129 21.1746 17.1357C21.0094 16.8624 20.6571 16.7696 20.3787 16.9261L19.992 17.1232C19.7149 17.2868 19.6214 17.6431 19.7824 17.9216C19.9502 18.1932 20.3022 18.2845 20.5808 18.1287Z" fill="white"/>
  <path d="M27.8531 16.4427C28.6016 16.4427 28.6016 15.2776 27.8531 15.2776C27.1046 15.2776 27.1046 16.4427 27.8531 16.4427Z" fill="white"/>
  <path d="M64.7702 48.3061V48.1115C64.7702 47.7891 64.5088 47.5277 64.1863 47.5277C63.8639 47.5277 63.6025 47.7891 63.6025 48.1115V48.3061C63.6025 48.5147 63.7138 48.7074 63.8944 48.8117C64.0751 48.916 64.2976 48.916 64.4782 48.8117C64.6589 48.7074 64.7702 48.5147 64.7702 48.3061Z" fill="white"/>
  <path d="M67.4898 46.3622C68.2383 46.3622 68.2383 45.1971 67.4898 45.1971C66.7413 45.1971 66.7413 46.3622 67.4898 46.3622Z" fill="white"/>
  <path d="M67.2125 49.9969L67.5992 49.7998C67.8751 49.6354 67.9683 49.2802 67.8087 49.0015C67.641 48.73 67.2898 48.6379 67.0104 48.7919L66.6237 48.989C66.3477 49.1534 66.2545 49.5086 66.4141 49.7874C66.5819 50.0588 66.933 50.151 67.2125 49.9969Z" fill="white"/>
  <path d="M85.1712 51.2186C85.9197 51.2186 85.9197 50.0535 85.1712 50.0535C84.4227 50.0535 84.4227 51.2186 85.1712 51.2186Z" fill="white"/>
  <path d="M84.7816 46.5573C85.53 46.5573 85.53 45.3922 84.7816 45.3922C84.0331 45.3922 84.0331 46.5573 84.7816 46.5573Z" fill="white"/>
  <path d="M80.897 49.86C81.6455 49.86 81.6455 48.6949 80.897 48.6949C80.1486 48.6949 80.1486 49.86 80.897 49.86Z" fill="white"/>
  <path d="M77.4697 23.8692C79.2233 24.2794 80.8745 25.0435 82.3223 26.1146C82.926 26.5587 83.5098 25.5483 82.9111 25.1167C81.3786 23.9845 79.6329 23.1741 77.7791 22.734C77.0506 22.5619 76.7387 23.6871 77.4697 23.8592V23.8692Z" fill="#3869FA"/>
  <path d="M80.7429 20.1177C82.0618 20.3011 83.3327 20.7383 84.4852 21.4051C85.1364 21.7818 85.7327 20.7739 85.074 20.4071C83.8375 19.6819 82.4729 19.2016 81.0547 18.9925C80.3212 18.8878 80.0019 20.0105 80.7429 20.1152V20.1177Z" fill="#3869FA"/>
  <path d="M15.56 55.3668C17.2278 52.8382 18.7666 50.2269 20.1705 47.5428C20.5173 46.8766 19.5119 46.2953 19.1726 46.954C17.7686 49.6375 16.2306 52.2488 14.5645 54.778C14.1504 55.4067 15.1583 55.9905 15.5625 55.3668H15.56Z" fill="#3869FA"/>
  <path d="M16.713 48.119C18.0621 47.8773 19.3593 47.4046 20.5477 46.7218L19.6719 46.2228C19.6238 47.1919 19.805 48.1587 20.2009 49.0446C20.4928 49.7307 21.4982 49.1394 21.1988 48.4558C20.9042 47.7502 20.7778 46.9857 20.8296 46.2228C20.8257 46.0161 20.7133 45.8267 20.5336 45.7243C20.354 45.6219 20.1337 45.6218 19.9539 45.7239C18.8506 46.3518 17.6469 46.784 16.3961 47.0013C15.6477 47.1335 15.9695 48.2487 16.7055 48.1265L16.713 48.119Z" fill="#3869FA"/>
</svg>
