<svg width="20" height="20" viewBox="0 0 20 20" fill="none" xmlns="http://www.w3.org/2000/svg">
  <path fill-rule="evenodd" clip-rule="evenodd" d="M10 0.29834C4.477 0.29834 0 4.78234 0 10.3153C0 14.7403 2.865 18.4953 6.839 19.8193C7.339 19.9113 7.521 19.6023 7.521 19.3363C7.521 19.0993 7.513 18.4683 7.508 17.6333C4.726 18.2383 4.139 16.2903 4.139 16.2903C3.685 15.1323 3.029 14.8243 3.029 14.8243C2.121 14.2043 3.098 14.2163 3.098 14.2163C4.101 14.2863 4.629 15.2483 4.629 15.2483C5.521 16.7783 6.97 16.3363 7.539 16.0803C7.631 15.4333 7.889 14.9923 8.175 14.7423C5.955 14.4893 3.62 13.6293 3.62 9.79134C3.62 8.69834 4.01 7.80334 4.649 7.10334C4.546 6.85034 4.203 5.83134 4.747 4.45334C4.747 4.45334 5.587 4.18334 7.497 5.47934C8.31277 5.25685 9.15444 5.14353 10 5.14234C10.85 5.14634 11.705 5.25734 12.504 5.47934C14.413 4.18334 15.251 4.45234 15.251 4.45234C15.797 5.83134 15.453 6.85034 15.351 7.10334C15.991 7.80334 16.379 8.69834 16.379 9.79134C16.379 13.6393 14.04 14.4863 11.813 14.7343C12.172 15.0433 12.491 15.6543 12.491 16.5893C12.491 17.9273 12.479 19.0083 12.479 19.3363C12.479 19.6043 12.659 19.9163 13.167 19.8183C15.1583 19.1504 16.8893 17.8736 18.1155 16.1684C19.3416 14.4631 20.0009 12.4157 20 10.3153C20 4.78234 15.522 0.29834 10 0.29834Z" fill="#9CA3AF"/>
</svg>
