<svg width="20" height="21" viewBox="0 0 20 21" fill="none" xmlns="http://www.w3.org/2000/svg">
  <path fill-rule="evenodd" clip-rule="evenodd" d="M10.315 0.29834C12.745 0.29834 13.099 0.31134 14.123 0.35834C15.187 0.40734 15.914 0.57634 16.55 0.82334C17.2175 1.07421 17.8222 1.4677 18.322 1.97634C18.8306 2.47611 19.2241 3.08084 19.475 3.74834C19.722 4.38434 19.891 5.11134 19.94 6.17534C19.988 7.24234 20 7.58234 20 10.2983V10.3783C20 13.0213 19.988 13.3653 19.94 14.4213C19.891 15.4853 19.722 16.2123 19.475 16.8483C19.2241 17.5158 18.8306 18.1206 18.322 18.6203C17.8222 19.129 17.2175 19.5225 16.55 19.7733C15.914 20.0203 15.187 20.1893 14.123 20.2383C13.056 20.2863 12.716 20.2983 10 20.2983H9.92C7.277 20.2983 6.933 20.2863 5.877 20.2383C4.813 20.1893 4.086 20.0203 3.45 19.7733C2.7825 19.5225 2.17777 19.129 1.678 18.6203C1.16936 18.1206 0.775874 17.5158 0.525 16.8483C0.278 16.2123 0.109 15.4853 0.0599999 14.4213C0.0129999 13.3973 0 13.0423 0 10.6133V9.98334C0 7.55334 0.0129999 7.19934 0.0599999 6.17534C0.109 5.11134 0.278 4.38434 0.525 3.74834C0.775874 3.08084 1.16936 2.47611 1.678 1.97634C2.17777 1.4677 2.7825 1.07421 3.45 0.82334C4.086 0.57634 4.813 0.40734 5.877 0.35834C6.901 0.31134 7.256 0.29834 9.685 0.29834H10.315ZM10.234 2.10034H9.766C7.31 2.10034 6.982 2.11134 5.959 2.15834C4.984 2.20334 4.455 2.36534 4.102 2.50234C3.635 2.68434 3.302 2.90034 2.952 3.25034C2.602 3.60034 2.386 3.93334 2.204 4.40034C2.067 4.75334 1.904 5.28234 1.86 6.25734C1.813 7.28034 1.802 7.60834 1.802 10.0643V10.5323C1.802 12.9883 1.813 13.3163 1.86 14.3393C1.905 15.3143 2.067 15.8433 2.204 16.1963C2.386 16.6623 2.603 16.9963 2.952 17.3463C3.302 17.6963 3.635 17.9123 4.102 18.0943C4.455 18.2313 4.984 18.3943 5.959 18.4383C7.013 18.4863 7.329 18.4963 10 18.4963H10.08C12.677 18.4963 12.997 18.4863 14.04 18.4383C15.016 18.3933 15.545 18.2313 15.898 18.0943C16.364 17.9123 16.698 17.6963 17.048 17.3463C17.398 16.9963 17.614 16.6633 17.796 16.1963C17.933 15.8433 18.096 15.3143 18.14 14.3393C18.188 13.2843 18.198 12.9693 18.198 10.2983V10.2183C18.198 7.62134 18.188 7.30134 18.14 6.25834C18.095 5.28234 17.933 4.75334 17.796 4.40034C17.6358 3.96591 17.3802 3.57294 17.048 3.25034C16.7254 2.9182 16.3324 2.6626 15.898 2.50234C15.545 2.36534 15.016 2.20234 14.041 2.15834C13.018 2.11134 12.69 2.10034 10.234 2.10034ZM10 5.16334C10.6743 5.16334 11.3421 5.29616 11.9651 5.55422C12.5881 5.81228 13.1542 6.19052 13.631 6.66735C14.1078 7.14418 14.4861 7.71025 14.7441 8.33326C15.0022 8.95627 15.135 9.624 15.135 10.2983C15.135 10.9727 15.0022 11.6404 14.7441 12.2634C14.4861 12.8864 14.1078 13.4525 13.631 13.9293C13.1542 14.4062 12.5881 14.7844 11.9651 15.0425C11.3421 15.3005 10.6743 15.4333 10 15.4333C8.63811 15.4333 7.33201 14.8923 6.36901 13.9293C5.40601 12.9663 4.865 11.6602 4.865 10.2983C4.865 8.93645 5.40601 7.63035 6.36901 6.66735C7.33201 5.70435 8.63811 5.16334 10 5.16334ZM10 6.96534C9.11603 6.96534 8.26827 7.31649 7.64321 7.94155C7.01815 8.56661 6.667 9.41437 6.667 10.2983C6.667 11.1823 7.01815 12.0301 7.64321 12.6551C8.26827 13.2802 9.11603 13.6313 10 13.6313C10.884 13.6313 11.7317 13.2802 12.3568 12.6551C12.9818 12.0301 13.333 11.1823 13.333 10.2983C13.333 9.41437 12.9818 8.56661 12.3568 7.94155C11.7317 7.31649 10.884 6.96534 10 6.96534ZM15.338 3.76034C15.6563 3.76034 15.9615 3.88677 16.1865 4.11181C16.4116 4.33686 16.538 4.64208 16.538 4.96034C16.538 5.2786 16.4116 5.58382 16.1865 5.80887C15.9615 6.03391 15.6563 6.16034 15.338 6.16034C15.0197 6.16034 14.7145 6.03391 14.4895 5.80887C14.2644 5.58382 14.138 5.2786 14.138 4.96034C14.138 4.64208 14.2644 4.33686 14.4895 4.11181C14.7145 3.88677 15.0197 3.76034 15.338 3.76034Z" fill="#9CA3AF"/>
</svg>
