<svg width="20" height="17" viewBox="0 0 20 17" fill="none" xmlns="http://www.w3.org/2000/svg">
  <path d="M6.29 16.5517C13.837 16.5517 17.965 10.2987 17.965 4.87674C17.965 4.69874 17.965 4.52174 17.953 4.34674C18.7562 3.76527 19.4493 3.04535 20 2.22074C19.2511 2.55274 18.4566 2.7705 17.643 2.86674C18.4996 2.3538 19.1408 1.54709 19.447 0.596738C18.6417 1.07462 17.7607 1.41147 16.842 1.59274C16.2234 0.934503 15.405 0.498572 14.5136 0.352443C13.6222 0.206313 12.7075 0.358137 11.9111 0.784407C11.1147 1.21068 10.4811 1.88761 10.1083 2.7104C9.7355 3.53319 9.64437 4.45592 9.849 5.33574C8.21759 5.25398 6.6216 4.83006 5.16465 4.09151C3.70769 3.35295 2.42233 2.31626 1.392 1.04874C0.867318 1.95194 0.706589 3.02116 0.942536 4.0387C1.17848 5.05625 1.79337 5.94562 2.662 6.52574C2.00926 6.50684 1.37063 6.33124 0.8 6.01374V6.06574C0.800389 7.01303 1.1284 7.93104 1.7284 8.66409C2.3284 9.39715 3.16347 9.90013 4.092 10.0877C3.48781 10.2525 2.85389 10.2764 2.239 10.1577C2.50116 10.9732 3.01168 11.6863 3.69913 12.1974C4.38658 12.7084 5.21657 12.9917 6.073 13.0077C5.22212 13.6763 4.24779 14.1706 3.20573 14.4623C2.16367 14.754 1.07432 14.8374 0 14.7077C1.8766 15.9121 4.06019 16.5508 6.29 16.5477" fill="#9CA3AF"/>
</svg>
